<?xml version="1.0" encoding="UTF-8" standalone="no"?>
<!-- Created with Inkscape (http://www.inkscape.org/) -->

<svg
   xmlns:dc="http://purl.org/dc/elements/1.1/"
   xmlns:cc="http://creativecommons.org/ns#"
   xmlns:rdf="http://www.w3.org/1999/02/22-rdf-syntax-ns#"
   xmlns:svg="http://www.w3.org/2000/svg"
   xmlns="http://www.w3.org/2000/svg"
   xmlns:sodipodi="http://sodipodi.sourceforge.net/DTD/sodipodi-0.dtd"
   xmlns:inkscape="http://www.inkscape.org/namespaces/inkscape"
   width="47.538433mm"
   height="13.22912mm"
   viewBox="0 0 47.538432 13.22912"
   version="1.1"
   id="svg8"
   sodipodi:docname="logo-full-white.svg"
   inkscape:version="0.92.2 (5c3e80d, 2017-08-06)">
  <defs
     id="defs2" />
  <sodipodi:namedview
     id="base"
     pagecolor="#ffffff"
     bordercolor="#666666"
     borderopacity="1.0"
     inkscape:pageopacity="0.0"
     inkscape:pageshadow="2"
     inkscape:zoom="3.959798"
     inkscape:cx="126.26119"
     inkscape:cy="10.193233"
     inkscape:document-units="mm"
     inkscape:current-layer="layer1"
     showgrid="false"
     inkscape:window-width="1920"
     inkscape:window-height="1017"
     inkscape:window-x="1912"
     inkscape:window-y="-8"
     inkscape:window-maximized="1" />
  <metadata
     id="metadata5">
    <rdf:RDF>
      <cc:Work
         rdf:about="">
        <dc:format>image/svg+xml</dc:format>
        <dc:type
           rdf:resource="http://purl.org/dc/dcmitype/StillImage" />
        <dc:title></dc:title>
      </cc:Work>
    </rdf:RDF>
  </metadata>
  <g
     inkscape:label="Layer 1"
     inkscape:groupmode="layer"
     id="layer1"
     transform="translate(0,-283.77084)">
    <path
       inkscape:connector-curvature="0"
       id="path23"
       d="m 14.916225,296.99899 c -0.0072,-0.004 -0.385241,-0.65642 -0.840121,-1.44856 -0.454875,-0.79215 -0.837545,-1.4496 -0.850375,-1.46101 -0.0219,-0.0195 -0.104048,-0.0207 -1.365985,-0.0207 -1.211192,0 -1.344194,0.002 -1.358268,0.0188 -0.0086,0.0104 -0.232441,0.40107 -0.49747,0.8683 -0.2687652,0.47381 -0.4890257,0.84952 -0.4980423,0.84952 -0.00924,0 -0.921286,-1.63198 -2.1266762,-3.80536 -1.1607837,-2.09295 -2.1148314,-3.81193 -2.1201069,-3.81995 -0.0075,-0.0114 -0.3342102,-0.0146 -1.5067433,-0.0146 H 2.2552816 l -0.7395893,1.26347 c -0.4067735,0.69491 -0.74617467,1.26622 -0.75422793,1.26958 -0.0143368,0.006 -0.76081448661,-0.4218 -0.76146412263652,-0.4364 C -0.00111982,290.24078 3.8018713,283.77332 3.8168073,283.77084 c 0.012265,-0.002 0.8841616,1.56033 2.8507413,5.10811 1.5582103,2.81107 2.8386112,5.1128 2.8453315,5.11496 0.00672,0.002 0.5287879,-0.90697 1.1601449,-2.02027 0.631352,-1.11331 1.155245,-2.03197 1.1642,-2.04148 0.01019,-0.0108 0.02016,-0.0131 0.02671,-0.006 0.01462,0.0159 3.812053,6.62153 3.815475,6.63697 0.0017,0.007 -0.139824,0.0941 -0.314134,0.19369 -0.174309,0.0996 -0.343708,0.19668 -0.376447,0.21575 -0.03276,0.0191 -0.0654,0.031 -0.07259,0.0264 z m -2.221132,-3.83418 c -3.75e-4,-0.0258 -0.824372,-1.44916 -0.838911,-1.44916 -0.01305,0 -0.832285,1.43059 -0.832285,1.45336 0,0.006 0.351929,0.0106 0.835707,0.0106 0.660776,0 0.835663,-0.003 0.835489,-0.0148 z m -7.9586125,-5.90495 c 0.00594,-0.0155 -0.8923828,-1.65302 -0.9271328,-1.69 -0.010137,-0.0108 -0.020105,-0.0131 -0.026546,-0.006 -0.035226,0.0387 -0.9859025,1.68261 -0.9807838,1.69595 0.00946,0.0246 1.9250143,0.0246 1.9344677,-3e-5 z m 3.0047612,1.00047 c -0.9732066,-1.74102 -1.7719857,-3.17512 -1.7750603,-3.18689 -0.00336,-0.0118 0.00168,-0.0271 0.010025,-0.034 0.04385,-0.0355 0.7257733,-0.4073 0.7412974,-0.4042 0.010193,0.002 0.6265637,1.09172 1.4101323,2.49296 0.765614,1.36914 1.3976155,2.49933 1.4044479,2.51153 0.012153,0.0217 0.012881,0.0217 0.033154,0 0.011425,-0.0122 0.3454389,-0.56024 0.742295,-1.21785 0.396855,-0.65762 0.728058,-1.19816 0.736005,-1.20121 0.01579,-0.006 0.750846,0.43322 0.750846,0.44872 0,0.0168 -2.2588445,3.74821 -2.2715236,3.75243 -0.00666,0.002 -0.8084284,-1.42041 -1.781635,-3.16144 z"
       style="fill:#ffffff;stroke-width:0.01185401" />
    <g
       aria-label="ANGELO VENTRESCA ASSOCIATES"
       transform="matrix(0.21536768,0,0,0.21536768,0.76547623,278.74256)"
       style="font-style:normal;font-variant:normal;font-weight:normal;font-stretch:normal;font-size:21.33333397px;line-height:1;font-family:'Lemon/Milk';-inkscape-font-specification:'Lemon/Milk';letter-spacing:0px;word-spacing:0px;fill:#000000;fill-opacity:1;stroke:none"
       id="flowRoot3758">
      <path
         id="path4008"
         style="font-size:21.33333397px;line-height:0;letter-spacing:1.85506392px;fill:#ffffff"
         d="m 211.79182,80.122997 c -0.94792,0 -1.96875,-0.770834 -1.96875,-1.708334 l -3.34375,0.71875 c 0.375,2.5 2.72917,4.406251 5.32292,4.406251 2.83333,0 5.375,-2.291667 5.375,-5.125001 0,-2.333333 -1.875,-3.947916 -3.98959,-4.5625 -1.16666,-0.34375 -3.08333,-0.75 -3.08333,-2.260417 0,-0.927083 0.77083,-1.708333 1.70833,-1.708333 0.92709,0 1.69792,0.78125 1.69792,1.697917 l 3.35417,-0.708334 c -0.35417,-2.489583 -2.48959,-4.40625 -5.07292,-4.40625 -2.83333,0 -5.125,2.28125 -5.125,5.114584 0,2.291667 1.80208,3.96875 3.85417,4.666667 1.15625,0.40625 3.21875,0.614583 3.21875,2.145833 0,0.9375 -1.03125,1.708333 -1.95834,1.708333 z M 193.65364,66.570913 V 83.42508 h 10.125 v -3.354167 h -6.75 v -3.385416 h 5.0625 v -3.364584 h -5.0625 v -3.385417 h 6.75 v -3.364583 z m -14.99235,0.04167 v 3.34375 h 4.13541 V 83.40425 h 3.38542 V 69.95633 h 4.125 V 66.61258 Z M 163.2106,83.404247 h 3.64584 l 1.13541,-2.552084 h 5.75 l 1.13542,2.552084 h 3.65625 L 170.86685,66.26883 Z m 6.11459,-5.53125 1.55208,-3.552084 1.53125,3.552084 z m -12.81526,5.53125 h 3.375 V 66.61258 h -3.375 z m -3.32569,-2.354167 -2.40625,-2.40625 c -1,1 -2.20833,1.5 -3.625,1.5 -1.40625,0 -2.60416,-0.5 -3.59375,-1.489583 -1,-1 -1.5,-2.208334 -1.5,-3.614584 0,-1.395833 0.5,-2.604166 1.5,-3.614583 0.97917,-1 2.1875,-1.5 3.60417,-1.5 1.39583,0 2.59375,0.5 3.61458,1.5 l 2.40625,-2.40625 c -1.39583,-1.34375 -3.45833,-2.489584 -6.04166,-2.489584 l 0.0104,-0.05208 c -2.33333,0 -4.34375,0.84375 -6.01041,2.510417 -1.66667,1.6875 -2.5,3.697917 -2.5,6.03125 0,2.354167 0.83333,4.354167 2.5,6.020833 1.65625,1.645834 3.65625,2.479167 6,2.479167 2.625,0 4.66666,-1.104167 6.04166,-2.46875 z M 127.42106,66.477163 c -2.34375,0 -4.35417,0.84375 -6.02083,2.510417 -1.66667,1.6875 -2.5,3.697917 -2.5,6.03125 0,2.354167 0.83333,4.354167 2.5,6.020833 1.65625,1.645834 3.66666,2.479167 6.02083,2.479167 2.34375,0 4.35417,-0.822917 6.02083,-2.479167 1.66667,-1.65625 2.51042,-3.666666 2.51042,-6.020833 0,-2.34375 -0.84375,-4.354167 -2.51042,-6.03125 -1.67708,-1.666667 -3.6875,-2.510417 -6.02083,-2.510417 z m -0.0104,3.40625 c 1.40625,0 2.60417,0.5 3.60417,1.5 1.01042,1.010417 1.51042,2.21875 1.51042,3.625 0,1.416667 -0.5,2.614584 -1.51042,3.614584 -1,0.989583 -2.20833,1.489583 -3.60417,1.489583 -1.41666,0 -2.61458,-0.5 -3.61458,-1.489583 -1,-1 -1.5,-2.208334 -1.5,-3.614584 0,-1.395833 0.5,-2.604166 1.5,-3.614583 0.98958,-1 2.19792,-1.510417 3.61458,-1.510417 z m -16.60695,10.239584 c -0.94792,0 -1.96875,-0.770834 -1.96875,-1.708334 l -3.34375,0.71875 c 0.375,2.5 2.72917,4.406251 5.32292,4.406251 2.83333,0 5.375,-2.291667 5.375,-5.125001 0,-2.333333 -1.875,-3.947916 -3.98959,-4.5625 -1.16666,-0.34375 -3.08333,-0.75 -3.08333,-2.260417 0,-0.927083 0.77083,-1.708333 1.70833,-1.708333 0.92709,0 1.69792,0.78125 1.69792,1.697917 l 3.35417,-0.708334 c -0.35417,-2.489583 -2.48959,-4.40625 -5.07292,-4.40625 -2.83333,0 -5.125,2.28125 -5.125,5.114584 0,2.291667 1.80208,3.96875 3.85417,4.666667 1.15625,0.40625 3.21875,0.614583 3.21875,2.145833 0,0.9375 -1.03125,1.708333 -1.95834,1.708333 z m -13.409016,0 c -0.947917,0 -1.96875,-0.770834 -1.96875,-1.708334 l -3.34375,0.71875 c 0.375,2.5 2.729167,4.406251 5.322917,4.406251 2.833329,0 5.374999,-2.291667 5.374999,-5.125001 0,-2.333333 -1.875,-3.947916 -3.989582,-4.5625 -1.166667,-0.34375 -3.083334,-0.75 -3.083334,-2.260417 0,-0.927083 0.770833,-1.708333 1.708334,-1.708333 0.927083,0 1.697916,0.78125 1.697916,1.697917 l 3.354166,-0.708334 c -0.35417,-2.489583 -2.489582,-4.40625 -5.072916,-4.40625 -2.833333,0 -5.125,2.28125 -5.125,5.114584 0,2.291667 1.802083,3.96875 3.854167,4.666667 1.15625,0.40625 3.21875,0.614583 3.21875,2.145833 0,0.9375 -1.03125,1.708333 -1.958333,1.708333 z m -22.513184,3.28125 h 3.645834 l 1.135417,-2.552084 h 5.75 l 1.135416,2.552084 h 3.656251 L 82.537761,66.26883 Z m 6.114584,-5.53125 1.552083,-3.552084 1.53125,3.552084 z M 197.44531,62.070911 h 3.64583 l 1.13542,-2.552083 h 5.75 l 1.13541,2.552083 h 3.65625 l -7.66666,-17.135417 z m 6.11458,-5.53125 1.55208,-3.552084 1.53125,3.552084 z m -8.48193,3.177083 -2.40626,-2.40625 c -1,1 -2.20833,1.5 -3.625,1.5 -1.40625,0 -2.60416,-0.5 -3.59375,-1.489583 -1,-1 -1.5,-2.208334 -1.5,-3.614584 0,-1.395833 0.5,-2.604166 1.5,-3.614583 0.97917,-1 2.1875,-1.5 3.60417,-1.5 1.39583,0 2.59375,0.5 3.61458,1.5 l 2.40626,-2.40625 c -1.39584,-1.34375 -3.45834,-2.489584 -6.04167,-2.489584 l 0.0104,-0.05208 c -2.33333,0 -4.34375,0.84375 -6.01041,2.510417 -1.66667,1.6875 -2.5,3.697917 -2.5,6.03125 0,2.354167 0.83333,4.354167 2.5,6.020834 1.65625,1.645833 3.65625,2.479166 6,2.479166 2.625,0 4.66667,-1.104166 6.04167,-2.46875 z m -22.63818,-0.927083 c -0.94792,0 -1.96875,-0.770833 -1.96875,-1.708334 l -3.34375,0.718751 c 0.375,2.5 2.72916,4.40625 5.32291,4.40625 2.83334,0 5.375,-2.291667 5.375,-5.125001 0,-2.333333 -1.875,-3.947916 -3.98958,-4.5625 -1.16667,-0.34375 -3.08333,-0.75 -3.08333,-2.260416 0,-0.927084 0.77083,-1.708334 1.70833,-1.708334 0.92708,0 1.69792,0.78125 1.69792,1.697917 l 3.35416,-0.708333 c -0.35416,-2.489584 -2.48958,-4.406251 -5.07291,-4.406251 -2.83334,0 -5.125,2.281251 -5.125,5.114584 0,2.291667 1.80208,3.96875 3.85416,4.666667 1.15625,0.40625 3.21875,0.614583 3.21875,2.145833 0,0.9375 -1.03125,1.708334 -1.95833,1.708334 z M 154.30159,45.237577 v 16.854167 h 10.125 v -3.354166 h -6.75 v -3.385417 h 5.0625 v -3.364584 h -5.0625 v -3.385416 h 6.75 v -3.364584 z m -15.65901,16.833334 h 3.375 v -7.427084 l 4.82291,7.427084 h 4.125 l -3.90625,-6.083334 c 0.95834,-0.375 1.42709,-0.71875 2.01042,-1.552083 0.70833,-1 1.0625,-2.0625 1.0625,-3.197917 v -0.4375 c 0,-1.854166 -0.59375,-2.78125 -1.61458,-3.8125 -1.02084,-1 -2.53125,-1.708333 -4.39584,-1.708333 h -5.47916 z m 5.80208,-8.802084 h -1.125 v -0.01042 h -1.30208 V 48.62299 h 1.89583 c 0.8125,0 1.63542,0.25 2.08333,0.666667 0.4375,0.46875 0.66667,1.010416 0.66667,1.625 0,1.270833 -0.98958,2.354166 -2.21875,2.354166 z m -20.79443,-7.989583 v 3.34375 h 4.13541 v 13.447917 h 3.38542 V 48.622994 h 4.125 v -3.34375 z m -16.82569,-0.354167 v 17.166667 h 3.375 v -9.322917 l 10.125,9.645834 V 45.237577 h -3.38541 v 9.322917 z m -13.45068,0.3125 v 16.854167 h 10.125 v -3.354166 h -6.75 v -3.385417 h 5.0625 v -3.364584 h -5.0625 v -3.385416 h 6.75 v -3.364584 z m -3.315266,0.04167 h -3.614583 l -4,9.197917 -3.989584,-9.197917 H 74.88151 l 7.572917,17.166667 z M 164.44743,23.810491 c -2.34375,0 -4.35417,0.84375 -6.02084,2.510417 -1.66666,1.6875 -2.5,3.697917 -2.5,6.03125 0,2.354167 0.83334,4.354167 2.5,6.020834 1.65625,1.645833 3.66667,2.479166 6.02084,2.479166 2.34375,0 4.35416,-0.822916 6.02083,-2.479166 1.66667,-1.65625 2.51042,-3.666667 2.51042,-6.020834 0,-2.34375 -0.84375,-4.354167 -2.51042,-6.03125 -1.67708,-1.666667 -3.6875,-2.510417 -6.02083,-2.510417 z m -0.0104,3.40625 c 1.40625,0 2.60417,0.5 3.60417,1.5 1.01041,1.010417 1.51041,2.21875 1.51041,3.625001 0,1.416666 -0.5,2.614583 -1.51041,3.614583 -1,0.989583 -2.20834,1.489583 -3.60417,1.489583 -1.41667,0 -2.61458,-0.5 -3.61458,-1.489583 -1,-1 -1.5,-2.208333 -1.5,-3.614583 0,-1.395834 0.5,-2.604167 1.5,-3.614584 0.98958,-1 2.19791,-1.510417 3.61458,-1.510417 z m -20.29445,-3.270833 v 16.791667 h 10.125 v -3.354167 h -6.75 v -13.4375 z m -13.45069,-0.04167 v 16.854167 h 10.125 v -3.354166 h -6.75 v -3.385417 h 5.0625 v -3.364584 h -5.0625 v -3.385416 h 6.75 v -3.364584 z m -11.81526,-0.09375 c -2.35417,0 -4.36459,0.84375 -6.01042,2.510417 -1.66667,1.6875 -2.5,3.697917 -2.5,6.03125 0,2.364584 0.83333,4.375 2.5,6.03125 1.64583,1.65625 3.64583,2.489584 6.01042,2.489584 2.33333,0 4.34375,-0.833334 6.02083,-2.489584 1.65625,-1.65625 2.6875,-3.927083 2.44792,-7.0625 h -8.625 v 3.21875 h 4.79166 c -0.73958,1.572917 -2.42708,2.9375 -4.60416,2.9375 -1.41667,0 -2.625,-0.5 -3.60417,-1.5 -1,-1 -1.5,-2.208333 -1.5,-3.614583 0,-1.416667 0.5,-2.614584 1.5,-3.614584 0.98958,-1.010416 2.1875,-1.510416 3.60417,-1.510416 1.375,0 2.58333,0.5 3.60416,1.510416 l 2.40625,-2.40625 c -1.375,-1.354166 -3.44791,-2.489583 -6.03125,-2.489583 z m -25.336102,-0.21875 v 17.166667 h 3.375 v -9.322917 l 10.125002,9.645834 V 23.904241 h -3.38542 v 9.322917 z M 74.88151,40.737575 h 3.645834 l 1.135417,-2.552083 h 5.75 l 1.135416,2.552083 h 3.656251 L 82.537761,23.602158 Z m 6.114584,-5.53125 1.552083,-3.552084 1.53125,3.552084 z"
         inkscape:connector-curvature="0" />
    </g>
  </g>
</svg>
