<?xml version="1.0" encoding="UTF-8" standalone="no"?>
<svg
   xmlns:dc="http://purl.org/dc/elements/1.1/"
   xmlns:cc="http://creativecommons.org/ns#"
   xmlns:rdf="http://www.w3.org/1999/02/22-rdf-syntax-ns#"
   xmlns:svg="http://www.w3.org/2000/svg"
   xmlns="http://www.w3.org/2000/svg"
   xmlns:sodipodi="http://sodipodi.sourceforge.net/DTD/sodipodi-0.dtd"
   xmlns:inkscape="http://www.inkscape.org/namespaces/inkscape"
   viewBox="0 0 14 12"
   version="1.1"
   id="svg18"
   sodipodi:docname="csharp.svg"
   width="14"
   height="12"
   inkscape:version="0.92.2 (5c3e80d, 2017-08-06)">
  <metadata
     id="metadata24">
    <rdf:RDF>
      <cc:Work
         rdf:about="">
        <dc:format>image/svg+xml</dc:format>
        <dc:type
           rdf:resource="http://purl.org/dc/dcmitype/StillImage" />
        <dc:title></dc:title>
      </cc:Work>
    </rdf:RDF>
  </metadata>
  <defs
     id="defs22" />
  <sodipodi:namedview
     pagecolor="#ffffff"
     bordercolor="#666666"
     borderopacity="1"
     objecttolerance="10"
     gridtolerance="10"
     guidetolerance="10"
     inkscape:pageopacity="0"
     inkscape:pageshadow="2"
     inkscape:window-width="958"
     inkscape:window-height="1008"
     id="namedview20"
     showgrid="false"
     inkscape:zoom="14.75"
     inkscape:cx="6.7134027"
     inkscape:cy="4.6961233"
     inkscape:window-x="2873"
     inkscape:window-y="0"
     inkscape:window-maximized="0"
     inkscape:current-layer="svg18" />
  <style
     id="style2">.st0{opacity:0}.st0,.st1{fill:#f6f6f6}.st2{fill:#424242}.st3{fill:#f0eff1}.st4{fill:#388a34}</style>
  <g
     id="icon_x5F_bg"
     style="fill:#000000"
     transform="translate(-1,-2)">
    <path
       class="st2"
       d="m 9,10 h 1 V 9 h 1 v 1 h 1 V 9 h 1 V 8 H 12 V 7 h 1 V 6 H 12 V 5 H 11 V 6 H 10 V 5 H 9 V 6 H 8 V 7 H 9 V 8 H 8 v 1 h 1 z m 1,-3 h 1 V 8 H 10 Z M 5.85,11 C 6.53,11 7.079,10.898 7.5,10.692 V 9.499 A 2.693,2.693 0 0 1 6.107,9.871 C 5.576,9.871 5.154,9.705 4.839,9.372 4.525,9.039 4.368,8.592 4.368,8.031 4.368,7.445 4.534,6.981 4.867,6.638 5.201,6.297 5.639,6.125 6.18,6.125 c 0.494,0 0.935,0.116 1.32,0.348 V 5.215 C 7.114,5.072 6.639,5 6.076,5 5.166,5 4.426,5.289 3.855,5.866 3.284,6.443 3,7.195 3,8.124 3,8.995 3.254,9.692 3.762,10.216 4.268,10.739 4.965,11 5.85,11 Z"
       id="path9"
       style="fill:#000000"
       inkscape:connector-curvature="0" />
  </g>
  <path
     class="st4"
     d="M 0,0 V 12 H 14 V 0 Z M 13,11 H 1 V 1 h 12 z"
     id="color_x5F_importance"
     style="fill:#000000"
     inkscape:connector-curvature="0" />
</svg>
