<?xml version="1.0" encoding="UTF-8" standalone="no"?>
<!-- Generator: Adobe Illustrator 15.1.0, SVG Export Plug-In . SVG Version: 6.00 Build 0)  -->

<svg
   xmlns:dc="http://purl.org/dc/elements/1.1/"
   xmlns:cc="http://creativecommons.org/ns#"
   xmlns:rdf="http://www.w3.org/1999/02/22-rdf-syntax-ns#"
   xmlns:svg="http://www.w3.org/2000/svg"
   xmlns="http://www.w3.org/2000/svg"
   xmlns:sodipodi="http://sodipodi.sourceforge.net/DTD/sodipodi-0.dtd"
   xmlns:inkscape="http://www.inkscape.org/namespaces/inkscape"
   version="1.0"
   id="Layer_1"
   x="0px"
   y="0px"
   width="650.48157"
   height="439.87601"
   viewBox="0 0 650.48157 439.87601"
   enable-background="new 0 0 792 612"
   xml:space="preserve"
   sodipodi:docname="html5_css3.svg"
   inkscape:version="0.92.2 (5c3e80d, 2017-08-06)"><metadata
     id="metadata3795"><rdf:RDF><cc:Work
         rdf:about=""><dc:format>image/svg+xml</dc:format><dc:type
           rdf:resource="http://purl.org/dc/dcmitype/StillImage" /><dc:title></dc:title></cc:Work></rdf:RDF></metadata><defs
     id="defs3793" /><sodipodi:namedview
     pagecolor="#ffffff"
     bordercolor="#666666"
     borderopacity="1"
     objecttolerance="10"
     gridtolerance="10"
     guidetolerance="10"
     inkscape:pageopacity="0"
     inkscape:pageshadow="2"
     inkscape:window-width="1920"
     inkscape:window-height="1017"
     id="namedview3791"
     showgrid="false"
     inkscape:zoom="1.3856209"
     inkscape:cx="357.687"
     inkscape:cy="205.01098"
     inkscape:window-x="-8"
     inkscape:window-y="-8"
     inkscape:window-maximized="1"
     inkscape:current-layer="Layer_1"
     fit-margin-top="10"
     fit-margin-left="10"
     fit-margin-right="10"
     fit-margin-bottom="10" /><g
     id="g3768"
     transform="translate(-38.313,-71.135)"><polygon
       points="196.856,500.986 75.383,467.266 48.313,163.646 345.763,163.646 318.665,467.217 "
       id="polygon3748"
       style="fill:#e44f26" /><polygon
       points="318.623,188.471 197.038,188.471 197.038,475.175 295.465,447.887 "
       id="polygon3750"
       style="fill:#f1662a" /><polygon
       points="197.038,225.709 196.909,225.709 103.663,225.709 104.555,235.7 113.707,338.316 197.038,338.316 197.038,301.08 147.763,301.08 144.359,262.948 197.038,262.948 "
       id="polygon3752"
       style="fill:#ebebeb" /><polygon
       points="197.038,436.532 197.038,397.788 196.875,397.834 155.403,386.635 152.751,356.937 132.6,356.937 115.371,356.937 120.588,415.404 196.866,436.58 "
       id="polygon3754"
       style="fill:#ebebeb" /><path
       d="m 75.988,81.135 h 18.924 v 18.696 h 17.311 V 81.135 h 18.925 v 56.618 h -18.924 v -18.958 h -17.31 v 18.958 H 75.988 Z"
       id="path3756"
       inkscape:connector-curvature="0"
       style="fill:#010101" /><path
       d="m 156.032,99.91 h -16.66 V 81.135 h 52.252 V 99.91 h -16.667 v 37.843 H 156.033 V 99.91 Z"
       id="path3758"
       inkscape:connector-curvature="0"
       style="fill:#010101" /><path
       d="m 199.917,81.135 h 19.733 l 12.137,19.894 12.127,-19.894 h 19.739 v 56.618 H 244.807 V 109.69 l -13.021,20.13 h -0.325 l -13.028,-20.13 v 28.063 H 199.916 V 81.135 Z"
       id="path3760"
       inkscape:connector-curvature="0"
       style="fill:#010101" /><path
       d="M 273.071,81.135 H 292 v 37.903 h 26.612 v 18.714 H 273.07 V 81.135 Z"
       id="path3762"
       inkscape:connector-curvature="0"
       style="fill:#010101" /><polygon
       points="242.763,338.316 238.441,386.61 196.909,397.82 196.909,436.562 273.249,415.404 273.808,409.114 282.559,311.079 283.467,301.08 273.433,301.08 196.909,301.08 196.909,338.316 "
       id="polygon3764"
       style="fill:#ffffff" /><polygon
       points="289.299,235.7 290.19,225.709 196.909,225.709 196.909,248.837 196.909,262.856 196.909,262.948 286.736,262.948 286.856,262.948 287.603,254.578 "
       id="polygon3766"
       style="fill:#ffffff" /></g><g
     id="g3772"
     transform="translate(-109.03942,-71.135)"><path
       d="m 685.164,96.681 h -24.688 l 25.674,27.859 v 13.261 h -52.882 v -15.526 h 25.669 l -25.669,-27.86 v -13.28 h 51.896 z m -62.378,0 h -24.688 l 25.673,27.859 v 13.261 h -52.882 v -15.526 h 25.672 l -25.672,-27.86 v -13.28 h 51.897 z m -61.768,0.631 h -26.64 v 24.313 h 26.64 v 16.176 H 515.444 V 81.135 h 45.574 z"
       id="path3770"
       inkscape:connector-curvature="0"
       style="fill:#131313" /></g><polygon
     points="479.142,467.29 452.071,163.67 749.521,163.67 722.425,467.241 600.614,501.011 "
     id="polygon3774"
     style="fill:#1572b6"
     transform="translate(-109.03942,-71.135)" /><polygon
     points="600.798,188.496 600.798,475.199 699.225,447.911 722.382,188.496 "
     id="polygon3776"
     style="fill:#33a9dc"
     transform="translate(-109.03942,-71.135)" /><g
     id="g3788"
     transform="translate(-109.03942,-71.135)"><polygon
       points="600.926,223.125 694.172,223.125 693.279,233.116 684.127,335.732 600.797,335.732 600.797,298.496 650.072,298.496 653.475,260.364 600.797,260.364 600.797,223.125 "
       id="polygon3778"
       style="fill:#ffffff" /><polygon
       points="601.02,395.204 600.857,395.25 559.385,384.051 556.733,354.353 536.582,354.353 519.354,354.353 524.57,412.82 600.848,433.996 601.02,433.948 "
       id="polygon3780"
       style="fill:#ebebeb" /><polygon
       points="600.891,395.236 600.891,433.978 677.23,412.82 677.79,406.53 684.268,334.156 646.907,334.156 642.423,384.026 "
       id="polygon3782"
       style="fill:#ffffff" /><polygon
       points="507.645,223.125 600.926,223.125 600.926,246.253 600.926,260.272 600.926,260.364 511.098,260.364 510.979,260.364 510.232,251.994 508.535,233.116 "
       id="polygon3784"
       style="fill:#ebebeb" /><polygon
       points="556.516,298.5 600.797,298.5 600.797,321.629 600.797,335.646 600.797,335.738 559.969,335.738 559.85,335.738 559.104,327.369 557.406,308.491 "
       id="polygon3786"
       style="fill:#ebebeb" /></g></svg>