<?xml version="1.0" encoding="UTF-8" standalone="no"?>
<svg
   xmlns:dc="http://purl.org/dc/elements/1.1/"
   xmlns:cc="http://creativecommons.org/ns#"
   xmlns:rdf="http://www.w3.org/1999/02/22-rdf-syntax-ns#"
   xmlns:svg="http://www.w3.org/2000/svg"
   xmlns="http://www.w3.org/2000/svg"
   xmlns:sodipodi="http://sodipodi.sourceforge.net/DTD/sodipodi-0.dtd"
   xmlns:inkscape="http://www.inkscape.org/namespaces/inkscape"
   id="SvgjsSvg1033"
   version="1.1"
   width="352.39026"
   height="179.13483"
   viewBox="0 0 352.39026 179.13482"
   sodipodi:docname="perforce_git.svg"
   inkscape:version="0.92.2 (5c3e80d, 2017-08-06)">
  <metadata
     id="metadata3831">
    <rdf:RDF>
      <cc:Work
         rdf:about="">
        <dc:format>image/svg+xml</dc:format>
        <dc:type
           rdf:resource="http://purl.org/dc/dcmitype/StillImage" />
        <dc:title>Fill 1</dc:title>
      </cc:Work>
    </rdf:RDF>
  </metadata>
  <sodipodi:namedview
     pagecolor="#ffffff"
     bordercolor="#666666"
     borderopacity="1"
     objecttolerance="10"
     gridtolerance="10"
     guidetolerance="10"
     inkscape:pageopacity="0"
     inkscape:pageshadow="2"
     inkscape:window-width="958"
     inkscape:window-height="1008"
     id="namedview3829"
     showgrid="false"
     fit-margin-top="25"
     fit-margin-left="25"
     fit-margin-bottom="25"
     fit-margin-right="25"
     inkscape:zoom="1"
     inkscape:cx="154.08202"
     inkscape:cy="178.02489"
     inkscape:window-x="2873"
     inkscape:window-y="0"
     inkscape:window-maximized="0"
     inkscape:current-layer="SvgjsSvg1033" />
  <title
     id="title3815">Fill 1</title>
  <desc
     id="desc3817">Created with Avocode.</desc>
  <defs
     id="SvgjsDefs1034" />
  <path
     id="SvgjsPath1035"
     d="m 29.325495,45.126274 c -0.534326,0 -0.979597,-0.445271 -0.979597,-0.979597 V 30.10154 c 0,-0.534326 0.445271,-0.979598 0.979597,-0.979598 h 6.259246 c 4.554492,0 8.231162,2.849738 8.409271,7.595061 -0.178109,4.847099 -3.854779,8.409271 -8.358383,8.409271 z m -2.010083,14.452242 c 0.470716,0 1.005042,-0.241718 1.030486,-0.661546 V 48.904721 c 0,-0.534326 0.445271,-0.979597 0.979597,-0.979597 h 7.582338 c 5.788531,0 10.584741,-4.465438 10.584741,-10.559297 0,-0.114498 -0.01272,-0.216275 -0.01272,-0.330773 0,-0.114499 0.01272,-0.228997 0.01272,-0.330773 0,-6.004805 -4.79621,-10.432077 -10.635629,-10.432077 H 25.992319 C 25.445272,26.272204 25,26.717476 25,27.251802 v 31.283507 c 0,0.648824 0.636102,1.043207 1.18315,1.043207 z"
     inkscape:connector-curvature="0"
     style="fill:#000000;fill-opacity:1;stroke-width:1.2722044" />
  <path
     id="SvgjsPath1036"
     d="m 83.406905,26.272204 h -1.132262 -16.996651 -1.11954 c -0.547048,0 -0.992319,0.445272 -0.992319,0.979598 v 0.661546 29.960414 0.661547 c 0,0.547048 0.445271,0.979597 0.992319,0.979597 h 1.11954 16.996651 1.132262 c 0.534326,0 0.979598,-0.432549 0.979598,-0.979597 v -0.318051 -0.343496 c 0,-0.534325 -0.445272,-0.979597 -0.979598,-0.979597 H 82.274643 67.542516 c -0.547048,0 -0.992319,-0.432549 -0.992319,-0.979597 V 44.770057 c 0,-0.547048 0.445271,-0.979598 0.992319,-0.979598 h 12.429437 1.132262 c 0.534326,0 0.979598,-0.445271 0.979598,-0.979597 v -0.05089 c 0,-0.101777 0,0 0.01272,-0.254441 -0.02544,-0.318051 -0.01272,-0.254441 -0.01272,-0.356217 v -0.05089 c 0,-0.547048 -0.445272,-0.979598 -0.979598,-0.979598 H 79.971953 67.542516 c -0.547048,0 -0.992319,-0.432549 -0.992319,-0.979597 V 29.923431 c 0,-0.547048 0.445271,-0.979597 0.992319,-0.979597 h 14.732127 1.132262 c 0.534326,0 0.979598,-0.445272 0.979598,-0.979598 v -0.05089 -0.62338 -0.03817 c 0,-0.534326 -0.445272,-0.979598 -0.979598,-0.979598"
     inkscape:connector-curvature="0"
     style="fill:#000000;fill-opacity:1;stroke-width:1.2722044" />
  <path
     id="SvgjsPath1037"
     d="m 104.43644,44.146677 c -0.54704,0 -0.99231,-0.445272 -0.99231,-0.979598 V 30.063374 c 0,-0.547048 0.44527,-0.979598 0.99231,-0.979598 h 7.77317 c 4.44,0 7.58234,2.824294 7.77317,7.073457 -0.19083,4.439993 -3.33317,7.989444 -7.735,7.989444 z m -1.92102,15.368229 c 0.54704,0 0.89054,-0.279885 0.89054,-0.597936 V 47.925124 c 0,-0.534326 0.43255,-0.979598 0.9796,-0.979598 h 7.81133 c 0.31805,0.03817 0.61066,0.216275 0.77605,0.49616 l 6.43735,11.51345 c 0.229,0.419828 0.41983,0.55977 0.9796,0.55977 h 2.46807 c 0,0 1.00505,0 0.21628,-1.501201 l -6.29741,-11.042735 0.0509,0.07633 c -0.30533,-0.534326 0.45799,-0.788767 0.45799,-0.788767 3.72756,-1.208594 6.60274,-5.763086 6.45008,-10.228524 0.11449,-3.562172 -1.6157,-7.175233 -6.33558,-9.083539 -0.24172,-0.101777 -1.79381,-0.674269 -4.44,-0.674269 h -12.28949 c -0.38166,0 -0.61066,0.279885 -0.61066,0.597937 v 31.665168 c 0,0.547048 0.44527,0.979597 0.99232,0.979597 z"
     inkscape:connector-curvature="0"
     style="fill:#000000;fill-opacity:1;stroke-width:1.2722044" />
  <path
     id="SvgjsPath1038"
     d="m 142.88246,59.514906 h 0.47072 c 0.47071,0 0.76332,-0.279885 0.76332,-0.597936 V 58.242702 46.016817 c 0,-0.534326 0.44527,-0.966875 0.9796,-0.966875 h 12.84926 1.13226 c 0.71244,0 0.61066,-0.839655 0.61066,-1.361259 0,0 0,-0.01272 0,-0.02544 0.0127,-0.216275 0,-0.445272 0,-0.636102 0,-0.330773 -0.27988,-0.610658 -0.61066,-0.610658 h -1.13226 -12.84926 c -0.53433,0 -0.9796,-0.43255 -0.9796,-0.979598 v -11.51345 c 0,-0.547048 0.44527,-0.979597 0.9796,-0.979597 h 14.78301 1.13227 c 0.53432,0 0.97959,-0.445272 0.97959,-0.979598 V 27.91335 27.28997 27.2518 c 0,-0.534326 -0.44527,-0.979598 -0.97959,-0.979598 h -1.13227 -16.99665 -1.11954 c -0.54705,0 -0.99232,0.445272 -0.99232,0.979598 v 0.661546 29.960414 0.661547 c 0,0.547048 0.44527,0.979597 0.99232,0.979597 h 0.47072 z"
     inkscape:connector-curvature="0"
     style="fill:#000000;fill-opacity:1;stroke-width:1.2722044" />
  <path
     id="SvgjsPath1039"
     d="m 177.11748,38.358146 c 0.25444,-0.661546 0.54705,-1.297648 0.89055,-1.895584 -0.33078,-0.305329 -1.15771,-0.954153 -1.10682,-1.005042 4.31277,-5.16515 9.93592,-6.717239 14.91023,-5.813974 1.01777,0.139943 2.03553,0.381661 3.04057,0.750601 7.12435,2.646185 10.72469,10.495686 8.05306,17.543699 -0.26717,0.699712 -0.59794,1.373981 -0.95416,1.997361 0.39439,0.343495 1.25949,0.979597 1.2086,1.030485 -4.78349,5.66131 -11.15723,6.971681 -16.46233,5.394147 -0.50888,-0.12722 -1.01776,-0.279885 -1.52664,-0.457993 -7.11163,-2.646186 -10.72469,-10.495687 -8.05306,-17.5437 z m 24.29911,-12.085942 c -0.90327,0.865099 -1.98464,1.908307 -2.51897,2.379023 -0.83965,-0.470716 -1.74292,-0.903265 -2.68435,-1.246761 -8.09122,-3.002402 -16.61499,0.394384 -21.30942,6.71724 -2.45536,3.625782 -3.90567,8.09122 -3.54945,12.683878 0,0 0.0127,8.638268 7.98944,13.727086 0.64883,-0.890543 1.47576,-2.035527 2.02281,-2.773406 0.89054,0.508882 1.83197,0.966875 2.82429,1.335815 9.15987,3.396785 19.31206,-0.941432 22.63252,-9.681476 0,0 2.42991,-5.330537 1.62842,-11.157233 0,0 -0.62338,-7.862223 -7.03529,-11.984166 z"
     inkscape:connector-curvature="0"
     style="fill:#000000;fill-opacity:1;stroke-width:1.2722044" />
  <path
     id="SvgjsPath1040"
     d="m 226.56807,44.146677 c -0.54705,0 -0.99232,-0.445272 -0.99232,-0.979598 V 30.063374 c 0,-0.547048 0.44527,-0.979598 0.99232,-0.979598 h 7.77317 c 4.43999,0 7.58234,2.824294 7.77317,7.073457 -0.19083,4.439993 -3.33318,7.989444 -7.73501,7.989444 z m -1.92103,15.368229 c 0.54705,0 0.89054,-0.279885 0.89054,-0.597936 V 47.925124 c 0,-0.534326 0.44528,-0.979598 0.9796,-0.979598 h 7.81134 c 0.31805,0.03817 0.61065,0.216275 0.77604,0.49616 l 6.42463,11.51345 c 0.24172,0.419828 0.43255,0.55977 0.99232,0.55977 h 2.46808 c 0,0 1.00504,0 0.21627,-1.501201 l -6.29741,-11.042735 0.0509,0.07633 c -0.30533,-0.534326 0.45799,-0.788767 0.45799,-0.788767 3.72756,-1.208594 6.60275,-5.763086 6.45008,-10.228524 0.1145,-3.562172 -1.6157,-7.175233 -6.33558,-9.083539 -0.24172,-0.101777 -1.79381,-0.674269 -4.43999,-0.674269 h -12.2895 c -0.38166,0 -0.61065,0.279885 -0.61065,0.597937 v 31.665168 c 0,0.547048 0.44527,0.979597 0.99232,0.979597 z"
     inkscape:connector-curvature="0"
     style="fill:#000000;fill-opacity:1;stroke-width:1.2722044" />
  <path
     id="SvgjsPath1041"
     d="m 290.91617,52.823111 c 0.38166,0.343495 1.17043,1.208594 0.36894,1.844696 -3.49856,2.73524 -7.30245,4.516326 -11.48801,4.516326 -0.20355,0 -0.39438,-0.01272 -0.58521,-0.02544 -0.17811,0.01272 -0.35622,0.02544 -0.54705,0.02544 -9.41431,0 -17.03482,-7.353342 -17.03482,-16.716766 0,-0.114499 0.0127,-0.216275 0.0127,-0.330773 0,-0.114499 -0.0127,-0.216275 -0.0127,-0.330774 0,-9.312536 7.62051,-16.80582 17.03482,-16.80582 0.15267,0 0.27989,0.01272 0.41983,0.01272 0.24172,0 0.47071,-0.01272 0.71243,-0.01272 4.79621,0 8.37111,1.577533 11.43712,4.325495 0.95415,0.801489 0.0509,1.513923 0.0509,1.513923 l -0.72516,0.686991 c -0.27988,0.279885 -1.05593,0.890543 -1.41214,0.55977 -0.44528,-0.43255 -0.54705,-0.508882 -0.54705,-0.508882 l 0.54705,0.508882 c -0.44528,-0.407106 -0.229,-0.216275 -0.54705,-0.508882 -2.54441,-2.251802 -5.73764,-3.651227 -9.35071,-3.791169 -7.86222,0.292607 -13.95608,6.628185 -14.13419,14.350466 0.17811,7.671392 6.27197,13.956082 14.12147,14.248689 3.76573,-0.139942 6.66635,-1.666588 9.36343,-3.880223 0,0 1.1577,-0.890543 2.31541,0.318051"
     inkscape:connector-curvature="0"
     style="fill:#000000;fill-opacity:1;stroke-width:1.2722044" />
  <path
     id="SvgjsPath1042"
     d="m 326.39795,26.272204 h -1.13226 -16.98393 -1.13226 c -0.54705,0 -0.99232,0.445272 -0.99232,0.979598 v 0.661546 29.960414 0.661547 c 0,0.547048 0.44527,0.979597 0.99232,0.979597 h 1.13226 16.98393 1.13226 c 0.54705,0 0.99232,-0.432549 0.99232,-0.979597 v -0.318051 -0.343496 c 0,-0.534325 -0.44527,-0.979597 -0.99232,-0.979597 h -1.13226 -14.73213 c -0.54705,0 -0.99232,-0.432549 -0.99232,-0.979597 V 44.770057 c 0,-0.547048 0.44527,-0.979598 0.99232,-0.979598 h 12.42944 1.13226 c 0.53433,0 0.9796,-0.445271 0.9796,-0.979597 v -0.05089 c 0,-0.101777 0,0 0.0127,-0.254441 -0.0127,-0.318051 -0.0127,-0.254441 -0.0127,-0.356217 v -0.05089 c 0,-0.547048 -0.44527,-0.979598 -0.9796,-0.979598 H 322.963 310.53356 c -0.54705,0 -0.99232,-0.432549 -0.99232,-0.979597 V 29.923431 c 0,-0.547048 0.44527,-0.979597 0.99232,-0.979597 h 14.73213 1.13226 c 0.54705,0 0.99232,-0.445272 0.99232,-0.979598 v -0.05089 -0.62338 -0.03817 c 0,-0.534326 -0.44527,-0.979598 -0.99232,-0.979598"
     inkscape:connector-curvature="0"
     style="fill:#000000;fill-opacity:1;stroke-width:1.2722044" />
  <g
     id="g3779"
     transform="matrix(0.64614353,0,0,0.64614353,90.543896,80.466201)"
     style="fill:#000000">
    <path
       id="path3759"
       d="m 163.59,38.806 c -5.985,0 -10.442,2.9389 -10.442,10.012 0,5.3291 2.9375,9.0284 10.12,9.0284 6.0875,0 10.222,-3.5869 10.222,-9.2485 0,-6.416 -3.7,-9.7915 -9.9,-9.7915 z m -11.97,49.94 c -1.4162,1.7382 -2.8275,3.585 -2.8275,5.7646 0,4.3482 5.545,5.6568 13.162,5.6568 6.31,0 14.905,-0.44188 14.905,-6.3085 0,-3.4869 -4.135,-3.7028 -9.36,-4.0304 l -15.88,-1.0825 z m 32.201,-49.611 c 1.955,2.5029 4.025,5.9848 4.025,10.989 0,12.075 -9.465,19.146 -23.169,19.146 -3.485,0 -6.64,-0.43412 -8.5962,-0.97712 l -3.5912,5.7648 10.66,0.65125 c 18.822,1.1992 29.915,1.7442 29.915,16.208 0,12.514 -10.985,19.581 -29.915,19.581 -19.69,0 -27.196,-5.0049 -27.196,-13.598 0,-4.8975 2.1762,-7.5025 5.9838,-11.098 -3.5912,-1.518 -4.7862,-4.2362 -4.7862,-7.1748 0,-2.395 1.195,-4.5702 3.1562,-6.6386 1.9575,-2.065 4.1325,-4.1348 6.7438,-6.5274 -5.33,-2.6104 -9.3562,-8.2676 -9.3562,-16.319 0,-12.509 8.2688,-21.1 24.91,-21.1 4.6788,0 7.5088,0.43062 10.011,1.0874 h 21.215 v 9.2446 l -10.01,0.76175"
       inkscape:connector-curvature="0"
       style="fill:#000000" />
    <path
       id="path3761"
       d="m 212.98,19.366 c -6.2025,0 -9.7912,-3.5932 -9.7912,-9.7964 0,-6.1954 3.5888,-9.5704 9.7912,-9.5704 6.31,0 9.9,3.375 9.9,9.5704 0,6.2031 -3.59,9.7964 -9.9,9.7964 z m -14.036,65.376 v -8.5899 l 5.55,-0.75925 c 1.5238,-0.22075 1.74,-0.5445 1.74,-2.1802 v -31.983 c 0,-1.1942 -0.325,-1.959 -1.4162,-2.2828 l -5.8738,-2.0688 1.1962,-8.8086 h 22.521 v 45.144 c 0,1.7438 0.105,1.9595 1.7412,2.1802 l 5.5488,0.75925 v 8.5899 h -31.008"
       inkscape:connector-curvature="0"
       style="fill:#000000" />
    <path
       id="path3763"
       d="m 272.97,80.526 c -4.68,2.2818 -11.532,4.3491 -17.736,4.3491 -12.945,0 -17.839,-5.2168 -17.839,-17.515 v -28.5 c 0,-0.65138 0,-1.0884 -0.87375,-1.0884 h -7.6138 v -9.6816 c 9.5762,-1.0908 13.381,-5.8784 14.578,-17.736 h 10.336 v 15.453 c 0,0.75875 0,1.0874 0.87125,1.0874 h 15.338 v 10.877 h -16.209 v 25.999 c 0,6.4194 1.525,8.9194 7.3962,8.9194 3.05,0 6.2012,-0.75925 8.8125,-1.7392 l 2.94,9.5761"
       inkscape:connector-curvature="0"
       style="fill:#000000" />
    <path
       id="path3765"
       d="M 111.78,51.977 62.035,2.2381 c -2.8622,-2.8648 -7.5082,-2.8648 -10.374,0 l -10.329,10.33 13.102,13.102 c 3.0459,-1.0284 6.5371,-0.33888 8.9639,2.0884 2.4394,2.4424 3.124,5.9634 2.0698,9.0195 l 12.628,12.628 c 3.0551,-1.0528 6.58,-0.37262 9.0195,2.0712 3.4106,3.4096 3.4106,8.9345 0,12.345 -3.4111,3.4116 -8.936,3.4116 -12.349,0 -2.5645,-2.5665 -3.1988,-6.3345 -1.8999,-9.4942 l -11.777,-11.777 -0.001,30.991 c 0.8315,0.41162 1.6162,0.961 2.3091,1.6509 3.4096,3.4092 3.4096,8.9331 0,12.348 -3.4106,3.4091 -8.938,3.4091 -12.345,0 -3.4101,-3.4146 -3.4101,-8.9385 0,-12.348 0.84275,-0.84125 1.8179,-1.478 2.8584,-1.9048 v -31.279 c -1.041,-0.425 -2.015,-1.057 -2.859,-1.905 -2.583,-2.581 -3.2051,-6.372 -1.8804,-9.5439 l -12.916,-12.918 -34.106,34.105 c -2.8657,2.867 -2.8657,7.513 0,10.378 l 49.742,49.739 c 2.8638,2.8648 7.5082,2.8648 10.376,0 l 49.512,-49.504 c 2.8648,-2.8662 2.8648,-7.5136 0,-10.379"
       inkscape:connector-curvature="0"
       style="fill:#000000" />
  </g>
</svg>
