<?xml version="1.0" encoding="UTF-8" standalone="no"?>
<svg
   xmlns:dc="http://purl.org/dc/elements/1.1/"
   xmlns:cc="http://creativecommons.org/ns#"
   xmlns:rdf="http://www.w3.org/1999/02/22-rdf-syntax-ns#"
   xmlns:svg="http://www.w3.org/2000/svg"
   xmlns="http://www.w3.org/2000/svg"
   xmlns:sodipodi="http://sodipodi.sourceforge.net/DTD/sodipodi-0.dtd"
   xmlns:inkscape="http://www.inkscape.org/namespaces/inkscape"
   id="SvgjsSvg1033"
   version="1.1"
   width="287.69"
   height="77.93"
   viewBox="0 0 287.69 77.93"
   sodipodi:docname="perforce.svg"
   inkscape:version="0.92.2 (5c3e80d, 2017-08-06)">
  <metadata
     id="metadata3831">
    <rdf:RDF>
      <cc:Work
         rdf:about="">
        <dc:format>image/svg+xml</dc:format>
        <dc:type
           rdf:resource="http://purl.org/dc/dcmitype/StillImage" />
        <dc:title>Fill 1</dc:title>
      </cc:Work>
    </rdf:RDF>
  </metadata>
  <sodipodi:namedview
     pagecolor="#ffffff"
     bordercolor="#666666"
     borderopacity="1"
     objecttolerance="10"
     gridtolerance="10"
     guidetolerance="10"
     inkscape:pageopacity="0"
     inkscape:pageshadow="2"
     inkscape:window-width="1920"
     inkscape:window-height="1017"
     id="namedview3829"
     showgrid="false"
     fit-margin-top="25"
     fit-margin-left="25"
     fit-margin-bottom="25"
     fit-margin-right="25"
     inkscape:zoom="4.7731092"
     inkscape:cx="179.97183"
     inkscape:cy="44.611947"
     inkscape:window-x="-8"
     inkscape:window-y="-8"
     inkscape:window-maximized="1"
     inkscape:current-layer="SvgjsSvg1033" />
  <title
     id="title3815">Fill 1</title>
  <desc
     id="desc3817">Created with Avocode.</desc>
  <defs
     id="SvgjsDefs1034" />
  <path
     id="SvgjsPath1035"
     d="m 28.4,40.82 c -0.42,0 -0.77,-0.35 -0.77,-0.77 V 29.01 c 0,-0.42 0.35,-0.77 0.77,-0.77 h 4.92 c 3.58,0 6.47,2.24 6.61,5.97 -0.14,3.81 -3.03,6.61 -6.57,6.61 z m -1.58,11.36 c 0.37,0 0.79,-0.19 0.81,-0.52 v -7.87 c 0,-0.42 0.35,-0.77 0.77,-0.77 h 5.96 c 4.55,0 8.32,-3.51 8.32,-8.3 0,-0.09 -0.01,-0.17 -0.01,-0.26 0,-0.09 0.01,-0.18 0.01,-0.26 0,-4.72 -3.77,-8.2 -8.36,-8.2 H 25.78 C 25.35,26 25,26.35 25,26.77 v 24.59 c 0,0.51 0.5,0.82 0.93,0.82 z"
     inkscape:connector-curvature="0"
     style="fill:#404040;fill-opacity:1" />
  <path
     id="SvgjsPath1036"
     d="M 70.91,26 H 70.02 56.66 55.78 C 55.35,26 55,26.35 55,26.77 v 0.52 23.55 0.52 c 0,0.43 0.35,0.77 0.78,0.77 h 0.88 13.36 0.89 c 0.42,0 0.77,-0.34 0.77,-0.77 v -0.25 -0.27 c 0,-0.42 -0.35,-0.77 -0.77,-0.77 H 70.02 58.44 c -0.43,0 -0.78,-0.34 -0.78,-0.77 v -8.76 c 0,-0.43 0.35,-0.77 0.78,-0.77 h 9.77 0.89 c 0.42,0 0.77,-0.35 0.77,-0.77 v -0.04 c 0,-0.08 0,0 0.01,-0.2 -0.02,-0.25 -0.01,-0.2 -0.01,-0.28 v -0.04 c 0,-0.43 -0.35,-0.77 -0.77,-0.77 h -0.89 -9.77 c -0.43,0 -0.78,-0.34 -0.78,-0.77 v -8.03 c 0,-0.43 0.35,-0.77 0.78,-0.77 h 11.58 0.89 c 0.42,0 0.77,-0.35 0.77,-0.77 V 27.29 26.8 26.77 C 71.68,26.35 71.33,26 70.91,26"
     inkscape:connector-curvature="0"
     style="fill:#404040;fill-opacity:1" />
  <path
     id="SvgjsPath1037"
     d="m 87.44,40.05 c -0.43,0 -0.78,-0.35 -0.78,-0.77 v -10.3 c 0,-0.43 0.35,-0.77 0.78,-0.77 h 6.11 c 3.49,0 5.96,2.22 6.11,5.56 -0.15,3.49 -2.62,6.28 -6.08,6.28 z m -1.51,12.08 c 0.43,0 0.7,-0.22 0.7,-0.47 v -8.64 c 0,-0.42 0.34,-0.77 0.77,-0.77 h 6.14 c 0.25,0.03 0.48,0.17 0.61,0.39 l 5.06,9.05 c 0.18,0.33 0.33,0.44 0.77,0.44 h 1.94 c 0,0 0.79,0 0.17,-1.18 l -4.95,-8.68 0.04,0.06 c -0.24,-0.42 0.36,-0.62 0.36,-0.62 2.93,-0.95 5.19,-4.53 5.07,-8.04 0.09,-2.8 -1.27,-5.64 -4.98,-7.14 C 97.44,26.45 96.22,26 94.14,26 H 84.48 C 84.18,26 84,26.22 84,26.47 v 24.89 c 0,0.43 0.35,0.77 0.78,0.77 z"
     inkscape:connector-curvature="0"
     style="fill:#404040;fill-opacity:1" />
  <path
     id="SvgjsPath1038"
     d="m 117.66,52.13 h 0.37 c 0.37,0 0.6,-0.22 0.6,-0.47 v -0.53 -9.61 c 0,-0.42 0.35,-0.76 0.77,-0.76 h 10.1 0.89 c 0.56,0 0.48,-0.66 0.48,-1.07 0,0 0,-0.01 0,-0.02 0.01,-0.17 0,-0.35 0,-0.5 0,-0.26 -0.22,-0.48 -0.48,-0.48 h -0.89 -10.1 c -0.42,0 -0.77,-0.34 -0.77,-0.77 v -9.05 c 0,-0.43 0.35,-0.77 0.77,-0.77 h 11.62 0.89 c 0.42,0 0.77,-0.35 0.77,-0.77 V 27.29 26.8 26.77 c 0,-0.42 -0.35,-0.77 -0.77,-0.77 h -0.89 -13.36 -0.88 c -0.43,0 -0.78,0.35 -0.78,0.77 v 0.52 23.55 0.52 c 0,0.43 0.35,0.77 0.78,0.77 h 0.37 z"
     inkscape:connector-curvature="0"
     style="fill:#404040;fill-opacity:1" />
  <path
     id="SvgjsPath1039"
     d="m 144.57,35.5 c 0.2,-0.52 0.43,-1.02 0.7,-1.49 -0.26,-0.24 -0.91,-0.75 -0.87,-0.79 3.39,-4.06 7.81,-5.28 11.72,-4.57 0.8,0.11 1.6,0.3 2.39,0.59 5.6,2.08 8.43,8.25 6.33,13.79 -0.21,0.55 -0.47,1.08 -0.75,1.57 0.31,0.27 0.99,0.77 0.95,0.81 -3.76,4.45 -8.77,5.48 -12.94,4.24 -0.4,-0.1 -0.8,-0.22 -1.2,-0.36 -5.59,-2.08 -8.43,-8.25 -6.33,-13.79 z m 19.1,-9.5 c -0.71,0.68 -1.56,1.5 -1.98,1.87 -0.66,-0.37 -1.37,-0.71 -2.11,-0.98 -6.36,-2.36 -13.06,0.31 -16.75,5.28 -1.93,2.85 -3.07,6.36 -2.79,9.97 0,0 0.01,6.79 6.28,10.79 0.51,-0.7 1.16,-1.6 1.59,-2.18 0.7,0.4 1.44,0.76 2.22,1.05 7.2,2.67 15.18,-0.74 17.79,-7.61 0,0 1.91,-4.19 1.28,-8.77 0,0 -0.49,-6.18 -5.53,-9.42 z"
     inkscape:connector-curvature="0"
     style="fill:#404040;fill-opacity:1" />
  <path
     id="SvgjsPath1040"
     d="m 183.44,40.05 c -0.43,0 -0.78,-0.35 -0.78,-0.77 v -10.3 c 0,-0.43 0.35,-0.77 0.78,-0.77 h 6.11 c 3.49,0 5.96,2.22 6.11,5.56 -0.15,3.49 -2.62,6.28 -6.08,6.28 z m -1.51,12.08 c 0.43,0 0.7,-0.22 0.7,-0.47 v -8.64 c 0,-0.42 0.35,-0.77 0.77,-0.77 h 6.14 c 0.25,0.03 0.48,0.17 0.61,0.39 l 5.05,9.05 c 0.19,0.33 0.34,0.44 0.78,0.44 h 1.94 c 0,0 0.79,0 0.17,-1.18 l -4.95,-8.68 0.04,0.06 c -0.24,-0.42 0.36,-0.62 0.36,-0.62 2.93,-0.95 5.19,-4.53 5.07,-8.04 0.09,-2.8 -1.27,-5.64 -4.98,-7.14 C 193.44,26.45 192.22,26 190.14,26 h -9.66 c -0.3,0 -0.48,0.22 -0.48,0.47 v 24.89 c 0,0.43 0.35,0.77 0.78,0.77 z"
     inkscape:connector-curvature="0"
     style="fill:#404040;fill-opacity:1" />
  <path
     id="SvgjsPath1041"
     d="m 234.02,46.87 c 0.3,0.27 0.92,0.95 0.29,1.45 -2.75,2.15 -5.74,3.55 -9.03,3.55 -0.16,0 -0.31,-0.01 -0.46,-0.02 -0.14,0.01 -0.28,0.02 -0.43,0.02 -7.4,0 -13.39,-5.78 -13.39,-13.14 0,-0.09 0.01,-0.17 0.01,-0.26 0,-0.09 -0.01,-0.17 -0.01,-0.26 0,-7.32 5.99,-13.21 13.39,-13.21 0.12,0 0.22,0.01 0.33,0.01 0.19,0 0.37,-0.01 0.56,-0.01 3.77,0 6.58,1.24 8.99,3.4 0.75,0.63 0.04,1.19 0.04,1.19 l -0.57,0.54 c -0.22,0.22 -0.83,0.7 -1.11,0.44 -0.35,-0.34 -0.43,-0.4 -0.43,-0.4 l 0.43,0.4 c -0.35,-0.32 -0.18,-0.17 -0.43,-0.4 -2,-1.77 -4.51,-2.87 -7.35,-2.98 -6.18,0.23 -10.97,5.21 -11.11,11.28 0.14,6.03 4.93,10.97 11.1,11.2 2.96,-0.11 5.24,-1.31 7.36,-3.05 0,0 0.91,-0.7 1.82,0.25"
     inkscape:connector-curvature="0"
     style="fill:#404040;fill-opacity:1" />
  <path
     id="SvgjsPath1042"
     d="m 261.91,26 h -0.89 -13.35 -0.89 c -0.43,0 -0.78,0.35 -0.78,0.77 v 0.52 23.55 0.52 c 0,0.43 0.35,0.77 0.78,0.77 h 0.89 13.35 0.89 c 0.43,0 0.78,-0.34 0.78,-0.77 v -0.25 -0.27 c 0,-0.42 -0.35,-0.77 -0.78,-0.77 h -0.89 -11.58 c -0.43,0 -0.78,-0.34 -0.78,-0.77 v -8.76 c 0,-0.43 0.35,-0.77 0.78,-0.77 h 9.77 0.89 c 0.42,0 0.77,-0.35 0.77,-0.77 v -0.04 c 0,-0.08 0,0 0.01,-0.2 -0.01,-0.25 -0.01,-0.2 -0.01,-0.28 v -0.04 c 0,-0.43 -0.35,-0.77 -0.77,-0.77 h -0.89 -9.77 c -0.43,0 -0.78,-0.34 -0.78,-0.77 v -8.03 c 0,-0.43 0.35,-0.77 0.78,-0.77 h 11.58 0.89 c 0.43,0 0.78,-0.35 0.78,-0.77 V 27.29 26.8 26.77 c 0,-0.42 -0.35,-0.77 -0.78,-0.77"
     inkscape:connector-curvature="0"
     style="fill:#404040;fill-opacity:1" />
</svg>
