<?xml version="1.0" encoding="UTF-8" standalone="no"?>
<svg
   xmlns:dc="http://purl.org/dc/elements/1.1/"
   xmlns:cc="http://creativecommons.org/ns#"
   xmlns:rdf="http://www.w3.org/1999/02/22-rdf-syntax-ns#"
   xmlns:svg="http://www.w3.org/2000/svg"
   xmlns="http://www.w3.org/2000/svg"
   xmlns:xlink="http://www.w3.org/1999/xlink"
   xmlns:sodipodi="http://sodipodi.sourceforge.net/DTD/sodipodi-0.dtd"
   xmlns:inkscape="http://www.inkscape.org/namespaces/inkscape"
   xml:space="preserve"
   height="221.33124"
   viewBox="0 0 304.05203 221.33269"
   width="304.05203"
   version="1.1"
   id="svg3804"
   sodipodi:docname="unity3d_unreal.svg"
   inkscape:version="0.92.2 (5c3e80d, 2017-08-06)"><metadata
     id="metadata3808"><rdf:RDF><cc:Work
         rdf:about=""><dc:format>image/svg+xml</dc:format><dc:type
           rdf:resource="http://purl.org/dc/dcmitype/StillImage" /><dc:title></dc:title></cc:Work></rdf:RDF></metadata><sodipodi:namedview
     pagecolor="#ffffff"
     bordercolor="#666666"
     borderopacity="1"
     objecttolerance="10"
     gridtolerance="10"
     guidetolerance="10"
     inkscape:pageopacity="0"
     inkscape:pageshadow="2"
     inkscape:window-width="1920"
     inkscape:window-height="1017"
     id="namedview3806"
     showgrid="false"
     inkscape:zoom="1.3387888"
     inkscape:cx="122.55432"
     inkscape:cy="63.929716"
     inkscape:window-x="1912"
     inkscape:window-y="-8"
     inkscape:window-maximized="1"
     inkscape:current-layer="svg3804" /><defs
     id="defs3784"><clipPath
       id="a"
       clipPathUnits="userSpaceOnUse"><path
         d="M 0,0 H 2467.7 V 3078.5 H 0 Z"
         id="path3781"
         inkscape:connector-curvature="0" /></clipPath><path
       d="m 152,110.2 c -3,0 -4.2,-1.8 -4.2,-1.8 -0.2,-0.8 -0.4,-12.7 -0.5,-24.5 -0.1,-12.3 0,-24.5 0.6,-24.6 3.5,-6.5 14.5,-19.6 14.5,-19.6 -20.6,4.1 -31.8,17.6 -31.8,17.6 -3.3,-2.6 -10.1,-2.2 -10.1,-2.2 3.2,1.7 6.3,6.8 6.3,11 v 41.4 c 0,0 -6.9,6.1 -12.2,6.1 -3.2,0 -5.1,-1.7 -6.2,-3.1 -0.7,-1 -1,-1.8 -1,-1.8 V 57.6 c -0.7,0.5 -1.6,0.9 -2.5,0.9 -1.1,0 -2.3,-0.6 -3.1,-2.2 -0.6,-1.3 -1,-3.1 -1,-5.9 0,-9.4 10.7,-15.7 10.7,-15.7 C 98,38.3 85.4,45.3 68.7,64.5 52,83.7 55.2,99.5 55.2,99.5 c 0,0 4.5,-11 15.6,-22.5 5.3,-5.4 9.2,-7.2 11.9,-7.3 3,0 4.4,2.2 4.4,4.2 v 38.9 c 0,3.8 -2.5,4.7 -4.8,4.6 -1.9,0 -3.7,-0.7 -3.7,-0.7 11.4,16.5 38.6,18.9 38.6,18.9 l 12,-12.8 0.3,0.2 11,9.3 c 20,-11.9 29.7,-34 29.7,-34 -9.1,9.7 -14.8,11.9 -18.2,11.9"
       id="SVGID_1_"
       inkscape:connector-curvature="0" /><rect
       height="470.39999"
       width="705.59998"
       y="-94.5"
       x="-46.799999"
       id="SVGID_3_" /><path
       d="m 115.6,5.2 c 21.2,0 41.2,8.3 56.2,23.5 15,15.1 23.3,35.3 23.3,56.7 0,21.4 -8.3,41.5 -23.3,56.7 -15,15.1 -35,23.5 -56.2,23.5 -21.2,0 -41.2,-8.3 -56.2,-23.5 C 44.4,127 36.1,106.8 36.1,85.4 36.1,64 44.4,43.9 59.4,28.7 74.4,13.5 94.3,5.2 115.6,5.2 m 0,-3.7 c -46,0 -83.2,37.5 -83.2,83.8 0,46.3 37.2,83.8 83.1,83.8 45.9,0 83.1,-37.5 83.1,-83.8 C 198.7,39 161.5,1.5 115.6,1.5"
       id="SVGID_5_"
       inkscape:connector-curvature="0" /><rect
       height="470.39999"
       width="705.59998"
       y="-94.5"
       x="-46.799999"
       id="SVGID_7_" /><polygon
       points="55.8,222 73.3,222 73.3,225.6 60.6,225.6 60.6,228.4 72.6,228.4 72.6,231.8 60.6,231.8 60.6,234.6 73.6,234.6 73.6,238.3 55.8,238.3 "
       id="SVGID_9_" /><rect
       height="470.39999"
       width="705.59998"
       y="-94.5"
       x="-46.799999"
       id="SVGID_11_" /><polygon
       points="81.1,226.1 81,226.1 81,238.3 76.3,238.3 76.3,222 83.6,222 92.9,234.3 93,234.3 93,222 97.7,222 97.7,238.3 90.6,238.3 "
       id="SVGID_13_" /><rect
       height="470.39999"
       width="705.59998"
       y="-94.5"
       x="-46.799999"
       id="SVGID_15_" /><path
       d="m 111.6,238.5 c -1.5,0 -2.8,0 -3.9,-0.1 -1.1,-0.1 -2,-0.2 -2.8,-0.4 -0.8,-0.2 -1.4,-0.5 -1.9,-0.9 -0.5,-0.4 -0.9,-0.9 -1.1,-1.5 -0.3,-0.6 -0.4,-1.3 -0.5,-2.2 -0.1,-0.8 -0.1,-1.9 -0.1,-3 V 230 c 0,-1.2 0,-2.2 0.1,-3 0.1,-0.9 0.3,-1.6 0.5,-2.2 0.3,-0.6 0.6,-1.1 1.1,-1.4 0.5,-0.4 1.1,-0.7 1.9,-0.9 0.8,-0.2 1.7,-0.3 2.8,-0.4 1.1,-0.1 2.4,-0.1 3.9,-0.1 h 0.7 c 1.3,0 2.4,0 3.3,0.1 0.9,0.1 1.8,0.2 2.4,0.3 0.7,0.1 1.2,0.3 1.7,0.6 0.4,0.2 0.8,0.6 1,0.9 0.3,0.4 0.4,0.8 0.5,1.4 0.1,0.5 0.1,1.2 0.1,1.9 v 0.6 h -4.6 v -0.2 c 0,-0.4 -0.1,-0.7 -0.2,-0.9 -0.1,-0.3 -0.3,-0.5 -0.7,-0.6 -0.3,-0.2 -0.8,-0.3 -1.4,-0.3 -0.6,-0.1 -1.4,-0.1 -2.4,-0.1 h -0.4 c -0.9,0 -1.7,0 -2.3,0 -0.6,0 -1.2,0.1 -1.6,0.2 -0.4,0.1 -0.8,0.3 -1,0.4 -0.2,0.2 -0.4,0.5 -0.6,0.8 -0.1,0.3 -0.2,0.7 -0.2,1.2 0,0.5 -0.1,1.1 -0.1,1.8 v 0.3 c 0,0.7 0,1.3 0.1,1.7 0,0.5 0.1,0.9 0.2,1.2 0.1,0.3 0.3,0.6 0.6,0.8 0.2,0.2 0.6,0.3 1,0.4 0.4,0.1 1,0.2 1.6,0.2 0.6,0 1.4,0 2.3,0 h 0.4 c 0.7,0 1.4,0 1.9,0 0.5,0 1,-0.1 1.3,-0.1 0.4,-0.1 0.7,-0.1 0.9,-0.2 0.2,-0.1 0.4,-0.2 0.5,-0.4 0.1,-0.2 0.2,-0.3 0.2,-0.6 0,-0.2 0.1,-0.5 0.1,-0.7 v -0.5 h -6.2 v -3.1 h 10.8 v 3.6 c 0,0.8 -0.1,1.5 -0.2,2.1 -0.1,0.6 -0.3,1.1 -0.6,1.5 -0.3,0.4 -0.6,0.8 -1.1,1.1 -0.4,0.3 -1,0.5 -1.7,0.7 -0.7,0.2 -1.5,0.3 -2.5,0.4 -1,0.1 -2.1,0.1 -3.4,0.1 h -0.4 z"
       id="SVGID_17_"
       inkscape:connector-curvature="0" /><rect
       height="470.39999"
       width="705.59998"
       y="-94.5"
       x="-46.799999"
       id="SVGID_19_" /><rect
       height="54.099998"
       width="227.7"
       y="184.5"
       x="1.8"
       id="SVGID_21_" /><rect
       height="470.39999"
       width="705.59998"
       y="-94.5"
       x="-46.799999"
       id="SVGID_23_" /><rect
       height="16.5"
       width="42.799999"
       y="222.10001"
       x="133.3"
       id="SVGID_25_" /><polygon
       points="138.1,226.2 138,226.2 138,238.3 133.4,238.3 133.4,222.2 140.6,222.2 149.9,234.3 150,234.3 150,222.2 154.6,222.2 154.6,238.3 147.5,238.3 "
       id="SVGID_27_" /><rect
       height="54.099998"
       width="227.7"
       y="184.39999"
       x="1.8"
       id="SVGID_29_" /><polygon
       points="158.4,222.2 175.7,222.2 175.7,225.7 163.1,225.7 163.1,228.5 175.1,228.5 175.1,231.9 163.1,231.9 163.1,234.7 176,234.7 176,238.3 158.4,238.3 "
       id="SVGID_31_" /><rect
       height="54.099998"
       width="227.7"
       y="184.39999"
       x="1.8"
       id="SVGID_33_" /><path
       d="m 18.9,213.3 c -2.3,0 -4.3,-0.1 -6.1,-0.2 C 11.1,213 9.6,212.8 8.3,212.5 7,212.2 6,211.8 5.2,211.3 c -0.8,-0.5 -1.5,-1.2 -2,-1.9 -0.5,-0.8 -0.8,-1.7 -1,-2.8 -0.2,-1.1 -0.3,-2.3 -0.3,-3.7 v -18.4 h 8.4 v 15.7 c 0,1 0,1.8 0.1,2.5 0.1,0.7 0.2,1.3 0.4,1.8 0.2,0.5 0.5,0.9 0.9,1.2 0.4,0.3 0.9,0.5 1.6,0.7 0.6,0.2 1.4,0.3 2.4,0.3 0.9,0.1 2.1,0.1 3.4,0.1 h 0.7 c 1.3,0 2.4,0 3.4,-0.1 0.9,-0.1 1.7,-0.2 2.4,-0.3 0.6,-0.2 1.2,-0.4 1.6,-0.7 0.4,-0.3 0.7,-0.7 0.9,-1.2 0.2,-0.5 0.3,-1.1 0.4,-1.8 0.1,-0.7 0.1,-1.5 0.1,-2.5 V 184.5 H 37 v 18.4 c 0,1.4 -0.1,2.6 -0.3,3.7 -0.2,1.1 -0.5,2 -1,2.8 -0.5,0.8 -1.1,1.4 -2,1.9 -0.8,0.5 -1.9,0.9 -3.1,1.2 -1.3,0.3 -2.8,0.5 -4.5,0.6 -1.8,0.1 -3.8,0.2 -6.1,0.2 z"
       id="SVGID_35_"
       inkscape:connector-curvature="0" /><rect
       height="470.39999"
       width="705.59998"
       y="-94.5"
       x="-46.799999"
       id="SVGID_37_" /><polygon
       points="51,191.7 50.8,191.7 50.8,213 42.6,213 42.6,184.5 55.3,184.5 71.7,205.8 71.8,205.8 71.8,184.5 80,184.5 80,213 67.5,213 "
       id="SVGID_39_" /><rect
       height="470.39999"
       width="705.59998"
       y="-94.5"
       x="-46.799999"
       id="SVGID_41_" /><path
       d="m 119.6,213 h -8.3 v -2.3 c 0,-0.8 0,-1.5 -0.1,-2.2 -0.1,-0.6 -0.2,-1.1 -0.4,-1.5 -0.2,-0.4 -0.5,-0.8 -0.9,-1 -0.4,-0.3 -0.9,-0.4 -1.6,-0.6 -0.6,-0.1 -1.4,-0.2 -2.4,-0.3 -0.9,0 -2.1,-0.1 -3.4,-0.1 h -8.4 v 7.9 H 85.8 V 184.4 H 108 c 2.3,0 4.2,0.1 5.7,0.4 1.5,0.3 2.7,0.8 3.5,1.4 0.9,0.7 1.5,1.6 1.8,2.7 0.3,1.1 0.5,2.5 0.5,4.1 v 1 c 0,1.1 -0.1,2.1 -0.3,2.9 -0.2,0.8 -0.5,1.6 -0.9,2.2 -0.4,0.6 -0.9,1.1 -1.5,1.5 -0.6,0.4 -1.4,0.7 -2.3,0.9 v 0.2 c 1,0.2 1.8,0.4 2.5,0.6 0.6,0.3 1.1,0.6 1.5,1.1 0.4,0.5 0.6,1.2 0.7,2 0.1,0.8 0.2,1.8 0.2,3.1 v 4.5 z m -15,-14.1 c 1.4,0 2.6,0 3.5,-0.1 0.9,-0.1 1.5,-0.3 2,-0.6 0.4,-0.3 0.7,-0.7 0.9,-1.2 0.1,-0.5 0.2,-1.2 0.2,-2 v -0.5 c 0,-0.8 -0.1,-1.5 -0.2,-2 -0.1,-0.5 -0.4,-0.9 -0.9,-1.1 -0.5,-0.3 -1.1,-0.4 -2,-0.5 -0.9,-0.1 -2,-0.1 -3.4,-0.1 H 94.2 v 8.1 z"
       id="SVGID_43_"
       inkscape:connector-curvature="0" /><rect
       height="470.39999"
       width="705.59998"
       y="-94.5"
       x="-46.799999"
       id="SVGID_45_" /><polygon
       points="125,184.5 155.6,184.5 155.6,190.8 133.4,190.8 133.4,195.6 154.4,195.6 154.4,201.6 133.4,201.6 133.4,206.5 156.1,206.5 156.1,213 125,213 "
       id="SVGID_47_" /><rect
       height="470.39999"
       width="705.59998"
       y="-94.5"
       x="-46.799999"
       id="SVGID_49_" /><path
       d="m 198.9,213 h -9.1 l -2.6,-5.1 h -17.8 l -2.6,5.1 h -9 l 15.3,-28.5 h 10.3 z m -14.7,-11.1 -5.8,-11.5 h -0.2 l -5.8,11.5 z"
       id="SVGID_51_"
       inkscape:connector-curvature="0" /><rect
       height="470.39999"
       width="705.59998"
       y="-94.5"
       x="-46.799999"
       id="SVGID_53_" /><polygon
       points="202,184.5 210.4,184.5 210.4,206.4 229.5,206.4 229.5,213 202,213 "
       id="SVGID_55_" /><rect
       height="470.39999"
       width="705.59998"
       y="-94.5"
       x="-46.799999"
       id="SVGID_57_" /><rect
       height="16.200001"
       width="4.8000002"
       y="222.2"
       x="125"
       id="SVGID_59_" /><rect
       height="470.39999"
       width="705.59998"
       y="-94.5"
       x="-46.799999"
       id="SVGID_61_" /></defs><g
     transform="matrix(1.25,0,0,-1.25,-72.974877,438.61514)"
     id="g3802"><g
       transform="matrix(0.19707,0,0,0.19707,-56.668,-255.78)"
       id="g3800"><g
         clip-path="url(#a)"
         id="g3798"
         style="fill:#222c37"><path
           d="m 1263.9,2944.2 h -42.52 v -98.34 c 0,-25.32 -10.39,-45.44 -40.9,-45.44 -30.18,-0.33 -38.94,20.44 -38.94,46.73 v 97.05 h -42.52 v -107.76 c 0,-31.15 11.03,-75.62 69.46,-75.95 32.13,-0.32 48.03,15.26 55.5,29.21 v -23.69 h 39.92 v 178.19"
           id="path3786"
           inkscape:connector-curvature="0" /><path
           d="m 1280.8,2766 h 42.52 v 98.35 c 0,24.99 10.38,45.11 40.57,45.44 29.86,0 38.62,-20.45 38.62,-47.06 V 2766 h 42.52 v 107.44 c 0,31.48 -11.03,75.95 -69.13,76.27 -31.81,0.32 -47.72,-15.25 -55.5,-29.21 0.32,8.44 0.32,15.9 0.32,23.69 H 1280.8 V 2766"
           id="path3788"
           inkscape:connector-curvature="0" /><path
           d="m 1461.3,2766 h 42.52 v 178.19 h -42.52 z m 0,202.21 h 42.52 v 37.98 h -42.52 v -37.98"
           id="path3790"
           inkscape:connector-curvature="0" /><path
           d="m 1548.3,2766 h 42.52 v 145.41 h 30.51 l -12.62,32.78 h -17.89 v 62 h -42.52 v -62 h -29.54 v -32.78 h 29.54 V 2766"
           id="path3792"
           inkscape:connector-curvature="0" /><path
           d="m 1662.4,2703.7 h 45.44 l 93.81,240.51 h -45.44 l -42.85,-118.47 -43.49,118.47 h -45.44 l 67.18,-171.37 -29.21,-69.14"
           id="path3794"
           inkscape:connector-curvature="0" /><path
           d="m 865.9,2856.7 77.609,134.02 37.504,-134.02 -37.504,-133.99 z m -37.829,-21.76 77.622,-134 -135.18,34.63 -97.668,99.37 h 155.23 z m 77.606,177.56 -77.606,-134.02 h -155.23 l 97.668,99.37 135.17,34.65 z m 110.8,-110.19 -47.353,176.15 -176.73,-47.21 -26.161,-45.99 -53.085,0.38 -129.36,-128.95 129.36,-128.92 h 0.003 l 53.063,0.39 26.199,-45.99 176.71,-47.21 47.353,176.13 -26.892,45.61 26.892,45.61"
           id="path3796"
           inkscape:connector-curvature="0" /></g></g></g><style
     id="style3810"
     type="text/css">
	.st0{clip-path:url(#SVGID_2_);}
	.st1{clip-path:url(#SVGID_4_);fill:#2E2E2C;}
	.st2{clip-path:url(#SVGID_6_);}
	.st3{clip-path:url(#SVGID_8_);fill:#2E2E2C;}
	.st4{clip-path:url(#SVGID_10_);}
	.st5{clip-path:url(#SVGID_12_);fill:#2E2E2C;}
	.st6{clip-path:url(#SVGID_14_);}
	.st7{clip-path:url(#SVGID_16_);fill:#2E2E2C;}
	.st8{clip-path:url(#SVGID_18_);}
	.st9{clip-path:url(#SVGID_20_);fill:#2E2E2C;}
	.st10{clip-path:url(#SVGID_22_);}
	.st11{clip-path:url(#SVGID_24_);enable-background:new    ;}
	.st12{clip-path:url(#SVGID_26_);}
	.st13{clip-path:url(#SVGID_28_);}
	.st14{clip-path:url(#SVGID_30_);fill:#2E2E2C;}
	.st15{clip-path:url(#SVGID_32_);}
	.st16{clip-path:url(#SVGID_34_);fill:#2E2E2C;}
	.st17{clip-path:url(#SVGID_36_);}
	.st18{clip-path:url(#SVGID_38_);fill:#2E2E2C;}
	.st19{clip-path:url(#SVGID_40_);}
	.st20{clip-path:url(#SVGID_42_);fill:#2E2E2C;}
	.st21{clip-path:url(#SVGID_44_);}
	.st22{clip-path:url(#SVGID_46_);fill:#2E2E2C;}
	.st23{clip-path:url(#SVGID_48_);}
	.st24{clip-path:url(#SVGID_50_);fill:#2E2E2C;}
	.st25{clip-path:url(#SVGID_52_);}
	.st26{clip-path:url(#SVGID_54_);fill:#2E2E2C;}
	.st27{clip-path:url(#SVGID_56_);}
	.st28{clip-path:url(#SVGID_58_);fill:#2E2E2C;}
	.st29{clip-path:url(#SVGID_60_);}
	.st30{clip-path:url(#SVGID_62_);fill:#2E2E2C;}
</style><g
     id="g4678"
     transform="translate(-33.13204,-8.1462232)"><g
       transform="matrix(0.59903212,0,0,0.59903212,17.103226,128.18258)"
       id="g3828"><defs
         id="defs3813"><path
           d="m 152,110.2 c -3,0 -4.2,-1.8 -4.2,-1.8 -0.2,-0.8 -0.4,-12.7 -0.5,-24.5 -0.1,-12.3 0,-24.5 0.6,-24.6 3.5,-6.5 14.5,-19.6 14.5,-19.6 -20.6,4.1 -31.8,17.6 -31.8,17.6 -3.3,-2.6 -10.1,-2.2 -10.1,-2.2 3.2,1.7 6.3,6.8 6.3,11 v 41.4 c 0,0 -6.9,6.1 -12.2,6.1 -3.2,0 -5.1,-1.7 -6.2,-3.1 -0.7,-1 -1,-1.8 -1,-1.8 V 57.6 c -0.7,0.5 -1.6,0.9 -2.5,0.9 -1.1,0 -2.3,-0.6 -3.1,-2.2 -0.6,-1.3 -1,-3.1 -1,-5.9 0,-9.4 10.7,-15.7 10.7,-15.7 C 98,38.3 85.4,45.3 68.7,64.5 52,83.7 55.2,99.5 55.2,99.5 c 0,0 4.5,-11 15.6,-22.5 5.3,-5.4 9.2,-7.2 11.9,-7.3 3,0 4.4,2.2 4.4,4.2 v 38.9 c 0,3.8 -2.5,4.7 -4.8,4.6 -1.9,0 -3.7,-0.7 -3.7,-0.7 11.4,16.5 38.6,18.9 38.6,18.9 l 12,-12.8 0.3,0.2 11,9.3 c 20,-11.9 29.7,-34 29.7,-34 -9.1,9.7 -14.8,11.9 -18.2,11.9"
           id="path4131"
           inkscape:connector-curvature="0" /></defs><clipPath
         id="SVGID_2_"><use
           id="use3815"
           style="overflow:visible"
           xlink:href="#SVGID_1_"
           x="0"
           y="0"
           width="100%"
           height="100%" /></clipPath><g
         id="g3826"
         clip-path="url(#SVGID_2_)"
         class="st0"><defs
           id="defs3819"><rect
             height="470.39999"
             width="705.59998"
             y="-94.5"
             x="-46.799999"
             id="rect4136" /></defs><clipPath
           id="SVGID_4_"><use
             id="use3821"
             style="overflow:visible"
             xlink:href="#SVGID_3_"
             x="0"
             y="0"
             width="100%"
             height="100%" /></clipPath><rect
           id="rect3824"
           clip-path="url(#SVGID_4_)"
           height="103.4"
           width="117.6"
           class="st1"
           y="33.5"
           x="53.700001"
           style="fill:#2e2e2c" /></g></g><g
       transform="matrix(0.59903212,0,0,0.59903212,17.103226,128.18258)"
       id="g3846"><defs
         id="defs3831"><path
           d="m 115.6,5.2 c 21.2,0 41.2,8.3 56.2,23.5 15,15.1 23.3,35.3 23.3,56.7 0,21.4 -8.3,41.5 -23.3,56.7 -15,15.1 -35,23.5 -56.2,23.5 -21.2,0 -41.2,-8.3 -56.2,-23.5 C 44.4,127 36.1,106.8 36.1,85.4 36.1,64 44.4,43.9 59.4,28.7 74.4,13.5 94.3,5.2 115.6,5.2 m 0,-3.7 c -46,0 -83.2,37.5 -83.2,83.8 0,46.3 37.2,83.8 83.1,83.8 45.9,0 83.1,-37.5 83.1,-83.8 C 198.7,39 161.5,1.5 115.6,1.5"
           id="path4144"
           inkscape:connector-curvature="0" /></defs><clipPath
         id="SVGID_6_"><use
           id="use3833"
           style="overflow:visible"
           xlink:href="#SVGID_5_"
           x="0"
           y="0"
           width="100%"
           height="100%" /></clipPath><g
         id="g3844"
         clip-path="url(#SVGID_6_)"
         class="st2"><defs
           id="defs3837"><rect
             height="470.39999"
             width="705.59998"
             y="-94.5"
             x="-46.799999"
             id="rect4149" /></defs><clipPath
           id="SVGID_8_"><use
             id="use3839"
             style="overflow:visible"
             xlink:href="#SVGID_7_"
             x="0"
             y="0"
             width="100%"
             height="100%" /></clipPath><rect
           id="rect3842"
           clip-path="url(#SVGID_8_)"
           height="170"
           width="168.60001"
           class="st3"
           y="0.30000001"
           x="31.200001"
           style="fill:#2e2e2c" /></g></g></g><g
     id="g4651"
     transform="matrix(1.3796466,0,0,1.3796466,90.78575,-174.76293)"><g
       transform="matrix(0.59903212,0,0,0.59903212,17.103226,128.18258)"
       id="g3864"><defs
         id="defs3849"><polygon
           points="55.8,238.3 55.8,222 73.3,222 73.3,225.6 60.6,225.6 60.6,228.4 72.6,228.4 72.6,231.8 60.6,231.8 60.6,234.6 73.6,234.6 73.6,238.3 "
           id="polygon4157" /></defs><clipPath
         id="SVGID_10_"><use
           id="use3851"
           style="overflow:visible"
           xlink:href="#SVGID_9_"
           x="0"
           y="0"
           width="100%"
           height="100%" /></clipPath><g
         id="g3862"
         clip-path="url(#SVGID_10_)"
         class="st4"><defs
           id="defs3855"><rect
             height="470.39999"
             width="705.59998"
             y="-94.5"
             x="-46.799999"
             id="rect4162" /></defs><clipPath
           id="SVGID_12_"><use
             id="use3857"
             style="overflow:visible"
             xlink:href="#SVGID_11_"
             x="0"
             y="0"
             width="100%"
             height="100%" /></clipPath><rect
           id="rect3860"
           clip-path="url(#SVGID_12_)"
           height="18.700001"
           width="20.1"
           class="st5"
           y="220.89999"
           x="54.599998"
           style="fill:#2e2e2c" /></g></g><g
       transform="matrix(0.59903212,0,0,0.59903212,17.103226,128.18258)"
       id="g3882"><defs
         id="defs3867"><polygon
           points="90.6,238.3 81.1,226.1 81,226.1 81,238.3 76.3,238.3 76.3,222 83.6,222 92.9,234.3 93,234.3 93,222 97.7,222 97.7,238.3 "
           id="polygon4170" /></defs><clipPath
         id="SVGID_14_"><use
           id="use3869"
           style="overflow:visible"
           xlink:href="#SVGID_13_"
           x="0"
           y="0"
           width="100%"
           height="100%" /></clipPath><g
         id="g3880"
         clip-path="url(#SVGID_14_)"
         class="st6"><defs
           id="defs3873"><rect
             height="470.39999"
             width="705.59998"
             y="-94.5"
             x="-46.799999"
             id="rect4175" /></defs><clipPath
           id="SVGID_16_"><use
             id="use3875"
             style="overflow:visible"
             xlink:href="#SVGID_15_"
             x="0"
             y="0"
             width="100%"
             height="100%" /></clipPath><rect
           id="rect3878"
           clip-path="url(#SVGID_16_)"
           height="18.700001"
           width="23.799999"
           class="st7"
           y="220.89999"
           x="75.099998"
           style="fill:#2e2e2c" /></g></g><g
       transform="matrix(0.59903212,0,0,0.59903212,17.103226,128.18258)"
       id="g3900"><defs
         id="defs3885"><path
           d="m 111.6,238.5 c -1.5,0 -2.8,0 -3.9,-0.1 -1.1,-0.1 -2,-0.2 -2.8,-0.4 -0.8,-0.2 -1.4,-0.5 -1.9,-0.9 -0.5,-0.4 -0.9,-0.9 -1.1,-1.5 -0.3,-0.6 -0.4,-1.3 -0.5,-2.2 -0.1,-0.8 -0.1,-1.9 -0.1,-3 V 230 c 0,-1.2 0,-2.2 0.1,-3 0.1,-0.9 0.3,-1.6 0.5,-2.2 0.3,-0.6 0.6,-1.1 1.1,-1.4 0.5,-0.4 1.1,-0.7 1.9,-0.9 0.8,-0.2 1.7,-0.3 2.8,-0.4 1.1,-0.1 2.4,-0.1 3.9,-0.1 h 0.7 c 1.3,0 2.4,0 3.3,0.1 0.9,0.1 1.8,0.2 2.4,0.3 0.7,0.1 1.2,0.3 1.7,0.6 0.4,0.2 0.8,0.6 1,0.9 0.3,0.4 0.4,0.8 0.5,1.4 0.1,0.5 0.1,1.2 0.1,1.9 v 0.6 h -4.6 v -0.2 c 0,-0.4 -0.1,-0.7 -0.2,-0.9 -0.1,-0.3 -0.3,-0.5 -0.7,-0.6 -0.3,-0.2 -0.8,-0.3 -1.4,-0.3 -0.6,-0.1 -1.4,-0.1 -2.4,-0.1 h -0.4 c -0.9,0 -1.7,0 -2.3,0 -0.6,0 -1.2,0.1 -1.6,0.2 -0.4,0.1 -0.8,0.3 -1,0.4 -0.2,0.2 -0.4,0.5 -0.6,0.8 -0.1,0.3 -0.2,0.7 -0.2,1.2 0,0.5 -0.1,1.1 -0.1,1.8 v 0.3 c 0,0.7 0,1.3 0.1,1.7 0,0.5 0.1,0.9 0.2,1.2 0.1,0.3 0.3,0.6 0.6,0.8 0.2,0.2 0.6,0.3 1,0.4 0.4,0.1 1,0.2 1.6,0.2 0.6,0 1.4,0 2.3,0 h 0.4 c 0.7,0 1.4,0 1.9,0 0.5,0 1,-0.1 1.3,-0.1 0.4,-0.1 0.7,-0.1 0.9,-0.2 0.2,-0.1 0.4,-0.2 0.5,-0.4 0.1,-0.2 0.2,-0.3 0.2,-0.6 0,-0.2 0.1,-0.5 0.1,-0.7 v -0.5 h -6.2 v -3.1 h 10.8 v 3.6 c 0,0.8 -0.1,1.5 -0.2,2.1 -0.1,0.6 -0.3,1.1 -0.6,1.5 -0.3,0.4 -0.6,0.8 -1.1,1.1 -0.4,0.3 -1,0.5 -1.7,0.7 -0.7,0.2 -1.5,0.3 -2.5,0.4 -1,0.1 -2.1,0.1 -3.4,0.1 h -0.4 z"
           id="path4183"
           inkscape:connector-curvature="0" /></defs><clipPath
         id="SVGID_18_"><use
           id="use3887"
           style="overflow:visible"
           xlink:href="#SVGID_17_"
           x="0"
           y="0"
           width="100%"
           height="100%" /></clipPath><g
         id="g3898"
         clip-path="url(#SVGID_18_)"
         class="st8"><defs
           id="defs3891"><rect
             height="470.39999"
             width="705.59998"
             y="-94.5"
             x="-46.799999"
             id="rect4188" /></defs><clipPath
           id="SVGID_20_"><use
             id="use3893"
             style="overflow:visible"
             xlink:href="#SVGID_19_"
             x="0"
             y="0"
             width="100%"
             height="100%" /></clipPath><rect
           id="rect3896"
           clip-path="url(#SVGID_20_)"
           height="18.9"
           width="22.799999"
           class="st9"
           y="220.8"
           x="100.1"
           style="fill:#2e2e2c" /></g></g><g
       transform="matrix(0.59903212,0,0,0.59903212,17.103226,128.18258)"
       id="g3962"><defs
         id="defs3903"><rect
           height="54.099998"
           width="227.7"
           y="184.5"
           x="1.8"
           id="rect4196" /></defs><clipPath
         id="SVGID_22_"><use
           id="use3905"
           style="overflow:visible"
           xlink:href="#SVGID_21_"
           x="0"
           y="0"
           width="100%"
           height="100%" /></clipPath><g
         id="g3960"
         clip-path="url(#SVGID_22_)"
         class="st10"><defs
           id="defs3909"><rect
             height="470.39999"
             width="705.59998"
             y="-94.5"
             x="-46.799999"
             id="rect4201" /></defs><clipPath
           id="SVGID_24_"><use
             id="use3911"
             style="overflow:visible"
             xlink:href="#SVGID_23_"
             x="0"
             y="0"
             width="100%"
             height="100%" /></clipPath><g
           id="g3958"
           clip-path="url(#SVGID_24_)"
           class="st11"
           style="enable-background:new"><g
             id="g3956"><defs
               id="defs3915"><rect
                 height="16.5"
                 width="42.799999"
                 y="222.10001"
                 x="133.3"
                 id="rect4206" /></defs><clipPath
               id="SVGID_26_"><use
                 id="use3917"
                 style="overflow:visible"
                 xlink:href="#SVGID_25_"
                 x="0"
                 y="0"
                 width="100%"
                 height="100%" /></clipPath><g
               id="g3936"
               clip-path="url(#SVGID_26_)"
               class="st12"><defs
                 id="defs3921"><polygon
                   points="147.5,238.3 138.1,226.2 138,226.2 138,238.3 133.4,238.3 133.4,222.2 140.6,222.2 149.9,234.3 150,234.3 150,222.2 154.6,222.2 154.6,238.3 "
                   id="polygon4211" /></defs><clipPath
                 id="SVGID_28_"><use
                   id="use3923"
                   style="overflow:visible"
                   xlink:href="#SVGID_27_"
                   x="0"
                   y="0"
                   width="100%"
                   height="100%" /></clipPath><g
                 id="g3934"
                 clip-path="url(#SVGID_28_)"
                 class="st13"><defs
                   id="defs3927"><rect
                     height="54.099998"
                     width="227.7"
                     y="184.39999"
                     x="1.8"
                     id="rect4216" /></defs><clipPath
                   id="SVGID_30_"><use
                     id="use3929"
                     style="overflow:visible"
                     xlink:href="#SVGID_29_"
                     x="0"
                     y="0"
                     width="100%"
                     height="100%" /></clipPath><rect
                   id="rect3932"
                   clip-path="url(#SVGID_30_)"
                   height="18.5"
                   width="23.6"
                   class="st14"
                   y="221"
                   x="132.2"
                   style="fill:#2e2e2c" /></g></g><g
               id="g3954"
               clip-path="url(#SVGID_26_)"
               class="st12"><defs
                 id="defs3939"><polygon
                   points="158.4,238.3 158.4,222.2 175.7,222.2 175.7,225.7 163.1,225.7 163.1,228.5 175.1,228.5 175.1,231.9 163.1,231.9 163.1,234.7 176,234.7 176,238.3 "
                   id="polygon4224" /></defs><clipPath
                 id="SVGID_32_"><use
                   id="use3941"
                   style="overflow:visible"
                   xlink:href="#SVGID_31_"
                   x="0"
                   y="0"
                   width="100%"
                   height="100%" /></clipPath><g
                 id="g3952"
                 clip-path="url(#SVGID_32_)"
                 class="st15"><defs
                   id="defs3945"><rect
                     height="54.099998"
                     width="227.7"
                     y="184.39999"
                     x="1.8"
                     id="rect4229" /></defs><clipPath
                   id="SVGID_34_"><use
                     id="use3947"
                     style="overflow:visible"
                     xlink:href="#SVGID_33_"
                     x="0"
                     y="0"
                     width="100%"
                     height="100%" /></clipPath><rect
                   id="rect3950"
                   clip-path="url(#SVGID_34_)"
                   height="18.5"
                   width="20"
                   class="st16"
                   y="221"
                   x="157.2"
                   style="fill:#2e2e2c" /></g></g></g></g></g></g><g
       transform="matrix(0.59903212,0,0,0.59903212,17.103226,128.18258)"
       id="g3980"><defs
         id="defs3965"><path
           d="m 18.9,213.3 c -2.3,0 -4.3,-0.1 -6.1,-0.2 C 11.1,213 9.6,212.8 8.3,212.5 7,212.2 6,211.8 5.2,211.3 c -0.8,-0.5 -1.5,-1.2 -2,-1.9 -0.5,-0.8 -0.8,-1.7 -1,-2.8 -0.2,-1.1 -0.3,-2.3 -0.3,-3.7 v -18.4 h 8.4 v 15.7 c 0,1 0,1.8 0.1,2.5 0.1,0.7 0.2,1.3 0.4,1.8 0.2,0.5 0.5,0.9 0.9,1.2 0.4,0.3 0.9,0.5 1.6,0.7 0.6,0.2 1.4,0.3 2.4,0.3 0.9,0.1 2.1,0.1 3.4,0.1 h 0.7 c 1.3,0 2.4,0 3.4,-0.1 0.9,-0.1 1.7,-0.2 2.4,-0.3 0.6,-0.2 1.2,-0.4 1.6,-0.7 0.4,-0.3 0.7,-0.7 0.9,-1.2 0.2,-0.5 0.3,-1.1 0.4,-1.8 0.1,-0.7 0.1,-1.5 0.1,-2.5 V 184.5 H 37 v 18.4 c 0,1.4 -0.1,2.6 -0.3,3.7 -0.2,1.1 -0.5,2 -1,2.8 -0.5,0.8 -1.1,1.4 -2,1.9 -0.8,0.5 -1.9,0.9 -3.1,1.2 -1.3,0.3 -2.8,0.5 -4.5,0.6 -1.8,0.1 -3.8,0.2 -6.1,0.2 z"
           id="path4241"
           inkscape:connector-curvature="0" /></defs><clipPath
         id="SVGID_36_"><use
           id="use3967"
           style="overflow:visible"
           xlink:href="#SVGID_35_"
           x="0"
           y="0"
           width="100%"
           height="100%" /></clipPath><g
         id="g3978"
         clip-path="url(#SVGID_36_)"
         class="st17"><defs
           id="defs3971"><rect
             height="470.39999"
             width="705.59998"
             y="-94.5"
             x="-46.799999"
             id="rect4246" /></defs><clipPath
           id="SVGID_38_"><use
             id="use3973"
             style="overflow:visible"
             xlink:href="#SVGID_37_"
             x="0"
             y="0"
             width="100%"
             height="100%" /></clipPath><rect
           id="rect3976"
           clip-path="url(#SVGID_38_)"
           height="31.200001"
           width="37.400002"
           class="st18"
           y="183.3"
           x="0.69999999"
           style="fill:#2e2e2c" /></g></g><g
       transform="matrix(0.59903212,0,0,0.59903212,17.103226,128.18258)"
       id="g3998"><defs
         id="defs3983"><polygon
           points="67.5,213 51,191.7 50.8,191.7 50.8,213 42.6,213 42.6,184.5 55.3,184.5 71.7,205.8 71.8,205.8 71.8,184.5 80,184.5 80,213 "
           id="polygon4254" /></defs><clipPath
         id="SVGID_40_"><use
           id="use3985"
           style="overflow:visible"
           xlink:href="#SVGID_39_"
           x="0"
           y="0"
           width="100%"
           height="100%" /></clipPath><g
         id="g3996"
         clip-path="url(#SVGID_40_)"
         class="st19"><defs
           id="defs3989"><rect
             height="470.39999"
             width="705.59998"
             y="-94.5"
             x="-46.799999"
             id="rect4259" /></defs><clipPath
           id="SVGID_42_"><use
             id="use3991"
             style="overflow:visible"
             xlink:href="#SVGID_41_"
             x="0"
             y="0"
             width="100%"
             height="100%" /></clipPath><rect
           id="rect3994"
           clip-path="url(#SVGID_42_)"
           height="30.9"
           width="39.799999"
           class="st20"
           y="183.3"
           x="41.400002"
           style="fill:#2e2e2c" /></g></g><g
       transform="matrix(0.59903212,0,0,0.59903212,17.103226,128.18258)"
       id="g4016"><defs
         id="defs4001"><path
           d="m 119.6,213 h -8.3 v -2.3 c 0,-0.8 0,-1.5 -0.1,-2.2 -0.1,-0.6 -0.2,-1.1 -0.4,-1.5 -0.2,-0.4 -0.5,-0.8 -0.9,-1 -0.4,-0.3 -0.9,-0.4 -1.6,-0.6 -0.6,-0.1 -1.4,-0.2 -2.4,-0.3 -0.9,0 -2.1,-0.1 -3.4,-0.1 h -8.4 v 7.9 H 85.8 V 184.4 H 108 c 2.3,0 4.2,0.1 5.7,0.4 1.5,0.3 2.7,0.8 3.5,1.4 0.9,0.7 1.5,1.6 1.8,2.7 0.3,1.1 0.5,2.5 0.5,4.1 v 1 c 0,1.1 -0.1,2.1 -0.3,2.9 -0.2,0.8 -0.5,1.6 -0.9,2.2 -0.4,0.6 -0.9,1.1 -1.5,1.5 -0.6,0.4 -1.4,0.7 -2.3,0.9 v 0.2 c 1,0.2 1.8,0.4 2.5,0.6 0.6,0.3 1.1,0.6 1.5,1.1 0.4,0.5 0.6,1.2 0.7,2 0.1,0.8 0.2,1.8 0.2,3.1 v 4.5 z m -15,-14.1 c 1.4,0 2.6,0 3.5,-0.1 0.9,-0.1 1.5,-0.3 2,-0.6 0.4,-0.3 0.7,-0.7 0.9,-1.2 0.1,-0.5 0.2,-1.2 0.2,-2 v -0.5 c 0,-0.8 -0.1,-1.5 -0.2,-2 -0.1,-0.5 -0.4,-0.9 -0.9,-1.1 -0.5,-0.3 -1.1,-0.4 -2,-0.5 -0.9,-0.1 -2,-0.1 -3.4,-0.1 H 94.2 v 8.1 z"
           id="path4267"
           inkscape:connector-curvature="0" /></defs><clipPath
         id="SVGID_44_"><use
           id="use4003"
           style="overflow:visible"
           xlink:href="#SVGID_43_"
           x="0"
           y="0"
           width="100%"
           height="100%" /></clipPath><g
         id="g4014"
         clip-path="url(#SVGID_44_)"
         class="st21"><defs
           id="defs4007"><rect
             height="470.39999"
             width="705.59998"
             y="-94.5"
             x="-46.799999"
             id="rect4272" /></defs><clipPath
           id="SVGID_46_"><use
             id="use4009"
             style="overflow:visible"
             xlink:href="#SVGID_45_"
             x="0"
             y="0"
             width="100%"
             height="100%" /></clipPath><rect
           id="rect4012"
           clip-path="url(#SVGID_46_)"
           height="30.9"
           width="36.099998"
           class="st22"
           y="183.3"
           x="84.699997"
           style="fill:#2e2e2c" /></g></g><g
       transform="matrix(0.59903212,0,0,0.59903212,17.103226,128.18258)"
       id="g4034"><defs
         id="defs4019"><polygon
           points="125,213 125,184.5 155.6,184.5 155.6,190.8 133.4,190.8 133.4,195.6 154.4,195.6 154.4,201.6 133.4,201.6 133.4,206.5 156.1,206.5 156.1,213 "
           id="polygon4280" /></defs><clipPath
         id="SVGID_48_"><use
           id="use4021"
           style="overflow:visible"
           xlink:href="#SVGID_47_"
           x="0"
           y="0"
           width="100%"
           height="100%" /></clipPath><g
         id="g4032"
         clip-path="url(#SVGID_48_)"
         class="st23"><defs
           id="defs4025"><rect
             height="470.39999"
             width="705.59998"
             y="-94.5"
             x="-46.799999"
             id="rect4285" /></defs><clipPath
           id="SVGID_50_"><use
             id="use4027"
             style="overflow:visible"
             xlink:href="#SVGID_49_"
             x="0"
             y="0"
             width="100%"
             height="100%" /></clipPath><rect
           id="rect4030"
           clip-path="url(#SVGID_50_)"
           height="30.9"
           width="33.400002"
           class="st24"
           y="183.3"
           x="123.9"
           style="fill:#2e2e2c" /></g></g><g
       transform="matrix(0.59903212,0,0,0.59903212,17.103226,128.18258)"
       id="g4052"><defs
         id="defs4037"><path
           d="m 198.9,213 h -9.1 l -2.6,-5.1 h -17.8 l -2.6,5.1 h -9 l 15.3,-28.5 h 10.3 z m -14.7,-11.1 -5.8,-11.5 h -0.2 l -5.8,11.5 z"
           id="path4293"
           inkscape:connector-curvature="0" /></defs><clipPath
         id="SVGID_52_"><use
           id="use4039"
           style="overflow:visible"
           xlink:href="#SVGID_51_"
           x="0"
           y="0"
           width="100%"
           height="100%" /></clipPath><g
         id="g4050"
         clip-path="url(#SVGID_52_)"
         class="st25"><defs
           id="defs4043"><rect
             height="470.39999"
             width="705.59998"
             y="-94.5"
             x="-46.799999"
             id="rect4298" /></defs><clipPath
           id="SVGID_54_"><use
             id="use4045"
             style="overflow:visible"
             xlink:href="#SVGID_53_"
             x="0"
             y="0"
             width="100%"
             height="100%" /></clipPath><rect
           id="rect4048"
           clip-path="url(#SVGID_54_)"
           height="30.9"
           width="43.400002"
           class="st26"
           y="183.3"
           x="156.7"
           style="fill:#2e2e2c" /></g></g><g
       transform="matrix(0.59903212,0,0,0.59903212,17.103226,128.18258)"
       id="g4070"><defs
         id="defs4055"><polygon
           points="202,213 202,184.5 210.4,184.5 210.4,206.4 229.5,206.4 229.5,213 "
           id="polygon4306" /></defs><clipPath
         id="SVGID_56_"><use
           id="use4057"
           style="overflow:visible"
           xlink:href="#SVGID_55_"
           x="0"
           y="0"
           width="100%"
           height="100%" /></clipPath><g
         id="g4068"
         clip-path="url(#SVGID_56_)"
         class="st27"><defs
           id="defs4061"><rect
             height="470.39999"
             width="705.59998"
             y="-94.5"
             x="-46.799999"
             id="rect4311" /></defs><clipPath
           id="SVGID_58_"><use
             id="use4063"
             style="overflow:visible"
             xlink:href="#SVGID_57_"
             x="0"
             y="0"
             width="100%"
             height="100%" /></clipPath><rect
           id="rect4066"
           clip-path="url(#SVGID_58_)"
           height="30.9"
           width="29.799999"
           class="st28"
           y="183.3"
           x="200.8"
           style="fill:#2e2e2c" /></g></g><g
       transform="matrix(0.59903212,0,0,0.59903212,17.103226,128.18258)"
       id="g4088"><defs
         id="defs4073"><rect
           height="16.200001"
           width="4.8000002"
           y="222.2"
           x="125"
           id="rect4319" /></defs><clipPath
         id="SVGID_60_"><use
           id="use4075"
           style="overflow:visible"
           xlink:href="#SVGID_59_"
           x="0"
           y="0"
           width="100%"
           height="100%" /></clipPath><g
         id="g4086"
         clip-path="url(#SVGID_60_)"
         class="st29"><defs
           id="defs4079"><rect
             height="470.39999"
             width="705.59998"
             y="-94.5"
             x="-46.799999"
             id="rect4324" /></defs><clipPath
           id="SVGID_62_"><use
             id="use4081"
             style="overflow:visible"
             xlink:href="#SVGID_61_"
             x="0"
             y="0"
             width="100%"
             height="100%" /></clipPath><rect
           id="rect4084"
           clip-path="url(#SVGID_62_)"
           height="18.5"
           width="7.0999999"
           class="st30"
           y="221"
           x="123.8"
           style="fill:#2e2e2c" /></g></g></g></svg>