<?xml version="1.0" encoding="UTF-8" standalone="no"?>
<svg
   xmlns:dc="http://purl.org/dc/elements/1.1/"
   xmlns:cc="http://creativecommons.org/ns#"
   xmlns:rdf="http://www.w3.org/1999/02/22-rdf-syntax-ns#"
   xmlns:svg="http://www.w3.org/2000/svg"
   xmlns="http://www.w3.org/2000/svg"
   xmlns:sodipodi="http://sodipodi.sourceforge.net/DTD/sodipodi-0.dtd"
   xmlns:inkscape="http://www.inkscape.org/namespaces/inkscape"
   xml:space="preserve"
   height="109.25"
   viewBox="0 0 300 109.25072"
   width="300"
   version="1.1"
   id="svg3804"
   sodipodi:docname="unity3d.svg"
   inkscape:version="0.92.2 (5c3e80d, 2017-08-06)"><metadata
     id="metadata3808"><rdf:RDF><cc:Work
         rdf:about=""><dc:format>image/svg+xml</dc:format><dc:type
           rdf:resource="http://purl.org/dc/dcmitype/StillImage" /></cc:Work></rdf:RDF></metadata><sodipodi:namedview
     pagecolor="#ffffff"
     bordercolor="#666666"
     borderopacity="1"
     objecttolerance="10"
     gridtolerance="10"
     guidetolerance="10"
     inkscape:pageopacity="0"
     inkscape:pageshadow="2"
     inkscape:window-width="1920"
     inkscape:window-height="1017"
     id="namedview3806"
     showgrid="false"
     inkscape:zoom="1.3387888"
     inkscape:cx="4.9302536"
     inkscape:cy="65.42359"
     inkscape:window-x="1912"
     inkscape:window-y="-8"
     inkscape:window-maximized="1"
     inkscape:current-layer="svg3804" /><defs
     id="defs3784"><clipPath
       id="a"
       clipPathUnits="userSpaceOnUse"><path
         d="m0 0h2467.7v3078.5h-2467.7v-3078.5z"
         id="path3781" /></clipPath></defs><g
     transform="matrix(1.25 0 0 -1.25 -72.974 438.62)"
     id="g3802"
     style="fill:#000000"><g
       transform="matrix(.19707 0 0 .19707 -56.668 -255.78)"
       id="g3800"
       style="fill:#000000"><g
         clip-path="url(#a)"
         id="g3798"
         fill="#222c37"
         style="fill:#000000"><path
           d="m1263.9 2944.2h-42.52v-98.34c0-25.32-10.39-45.44-40.9-45.44-30.18-0.33-38.94 20.44-38.94 46.73v97.05h-42.52v-107.76c0-31.15 11.03-75.62 69.46-75.95 32.13-0.32 48.03 15.26 55.5 29.21v-23.69h39.92v178.19"
           id="path3786"
           style="fill:#000000" /><path
           d="m1280.8 2766h42.52v98.35c0 24.99 10.38 45.11 40.57 45.44 29.86 0 38.62-20.45 38.62-47.06v-96.73h42.52v107.44c0 31.48-11.03 75.95-69.13 76.27-31.81 0.32-47.72-15.25-55.5-29.21 0.32 8.44 0.32 15.9 0.32 23.69h-39.92v-178.19"
           id="path3788"
           style="fill:#000000" /><path
           d="m1461.3 2766h42.52v178.19h-42.52v-178.19zm0 202.21h42.52v37.98h-42.52v-37.98"
           id="path3790"
           style="fill:#000000" /><path
           d="m1548.3 2766h42.52v145.41h30.51l-12.62 32.78h-17.89v62h-42.52v-62h-29.54v-32.78h29.54v-145.41"
           id="path3792"
           style="fill:#000000" /><path
           d="m1662.4 2703.7h45.44l93.81 240.51h-45.44l-42.85-118.47-43.49 118.47h-45.44l67.18-171.37-29.21-69.14"
           id="path3794"
           style="fill:#000000" /><path
           d="m865.9 2856.7 77.609 134.02 37.504-134.02-37.504-133.99-77.609 133.99zm-37.829-21.76 77.622-134-135.18 34.63-97.668 99.37h155.23zm77.606 177.56-77.606-134.02h-155.23l97.668 99.37 135.17 34.65zm110.8-110.19-47.353 176.15-176.73-47.21-26.161-45.99-53.085 0.38-129.36-128.95 129.36-128.92h0.003l53.063 0.39 26.199-45.99 176.71-47.21 47.353 176.13-26.892 45.61 26.892 45.61"
           id="path3796"
           style="fill:#000000" /></g></g></g></svg>