<?xml version="1.0" encoding="UTF-8" standalone="no"?>
<svg
   xmlns:dc="http://purl.org/dc/elements/1.1/"
   xmlns:cc="http://creativecommons.org/ns#"
   xmlns:rdf="http://www.w3.org/1999/02/22-rdf-syntax-ns#"
   xmlns:svg="http://www.w3.org/2000/svg"
   xmlns="http://www.w3.org/2000/svg"
   xmlns:sodipodi="http://sodipodi.sourceforge.net/DTD/sodipodi-0.dtd"
   xmlns:inkscape="http://www.inkscape.org/namespaces/inkscape"
   version="1.1"
   viewBox="0 0 705.5 107.9"
   id="svg124"
   sodipodi:docname="vicarious_visions.svg"
   inkscape:version="0.92.2 (5c3e80d, 2017-08-06)">
  <metadata
     id="metadata130">
    <rdf:RDF>
      <cc:Work
         rdf:about="">
        <dc:format>image/svg+xml</dc:format>
        <dc:type
           rdf:resource="http://purl.org/dc/dcmitype/StillImage" />
      </cc:Work>
    </rdf:RDF>
  </metadata>
  <defs
     id="defs128" />
  <sodipodi:namedview
     pagecolor="#ffffff"
     bordercolor="#666666"
     borderopacity="1"
     objecttolerance="10"
     gridtolerance="10"
     guidetolerance="10"
     inkscape:pageopacity="0"
     inkscape:pageshadow="2"
     inkscape:window-width="1920"
     inkscape:window-height="1017"
     id="namedview126"
     showgrid="false"
     inkscape:zoom="1.6102055"
     inkscape:cx="308.75518"
     inkscape:cy="71.034132"
     inkscape:window-x="1912"
     inkscape:window-y="-8"
     inkscape:window-maximized="1"
     inkscape:current-layer="svg124" />
  <g
     id="g20"
     style="fill:#000000">
    <path
       class="st0"
       d="M232,76.3l-8.9,16.3l-8.8-16.1c-0.9-1.7-2.3-1.7-2.3-1.7h-6.8l16.9,30.9c0.1,0.1,0.3,0.7,0.9,0.7                 c0.6,0,0.7-0.4,0.9-0.8l16.9-30.8h-6.6C234.2,74.9,232.9,74.9,232,76.3z"
       id="path18"
       style="fill:#000000" />
  </g>
  <g
     id="g24"
     style="fill:#000000">
    <path
       class="st0"
       d="M295.3,74.9c-1.1,0.1-3.5,0.6-3.6,3.7v27.9h3.6c1.2-0.1,3.3-0.8,3.4-3.8V74.9h-2.7H295.3z"
       id="path22"
       style="fill:#000000" />
  </g>
  <g
     id="g28"
     style="fill:#000000">
    <path
       class="st0"
       d="M665.5,90.9c-0.9-0.7-1.9-1.4-3.2-1.9c-1.3-0.5-2.7-1-4.3-1.4c-1.4-0.4-2.5-0.7-3.4-0.9                 c-0.9-0.3-1.6-0.6-2.1-0.9c-0.5-0.3-0.9-0.6-1.1-1c-0.2-0.4-0.3-0.8-0.3-1.3v-0.1c0-0.8,0.3-1.4,1-2c0.7-0.5,1.7-0.8,3-0.8                 c1.3,0,2.7,0.3,4.1,0.8c0.6,0.3,1.2,0.6,1.9,0.9v0c0,0,2.4,1.3,4-1.1l1.9-2.7c-1.6-1.3-3.4-2.3-5.3-3c-1.9-0.7-4.1-1-6.4-1                 c-1.6,0-3.1,0.2-4.5,0.7c-1.4,0.5-2.5,1.1-3.5,1.9c-1,0.8-1.7,1.8-2.3,3c-0.5,1.2-0.8,2.5-0.8,3.9V84c0,1.6,0.3,2.9,0.7,3.9                 c0.5,1.1,1.2,1.9,2.1,2.6c0.9,0.7,2,1.3,3.3,1.8c1.3,0.5,2.7,0.9,4.3,1.3c1.3,0.3,2.4,0.6,3.2,0.9c0.8,0.3,1.5,0.6,1.9,0.9                 c0.5,0.3,0.8,0.6,1,1c0.2,0.3,0.2,0.7,0.2,1.2v0.1c0,0.9-0.4,1.7-1.2,2.2c-0.8,0.5-1.9,0.8-3.4,0.8c-1.8,0-3.5-0.3-5-1                 c-0.9-0.4-1.7-0.9-2.5-1.4c-0.1-0.1-2.3-1.1-4.2,1.3l-1.9,2.2c1.9,1.7,4,3,6.3,3.8c2.3,0.8,4.7,1.2,7.1,1.2c1.7,0,3.3-0.2,4.7-0.7                 c1.4-0.4,2.6-1.1,3.6-1.9c1-0.8,1.8-1.8,2.4-3.1c0.6-1.2,0.9-2.6,0.9-4.2V97c0-1.4-0.2-2.6-0.7-3.6C667,92.5,666.3,91.6,665.5,90.9                 z"
       id="path26"
       style="fill:#000000" />
  </g>
  <path
     class="st0"
     d="M594.5,74.9h-0.6c-1.1,0.1-3.5,0.6-3.6,3.7v14.6l-13.6-18.3h-2.7h-0.6c-1.1,0.1-3.5,0.6-3.6,3.7v27.8h3.6             c1.2-0.1,3.2-0.8,3.4-3.7V87.6l13.6,18.8h3.6c1.2-0.1,3.2-0.8,3.4-3.7V74.9H594.5z"
     id="path30"
     style="fill:#000000" />
  <g
     id="g34"
     style="fill:#000000">
    <path
       class="st0"
       d="M523.5,79.1c-1.5-1.5-3.3-2.6-5.3-3.5c-2-0.9-4.3-1.3-6.7-1.3c-2.4,0-4.7,0.4-6.7,1.3c-2.1,0.9-3.8,2-5.3,3.5                 c-1.5,1.5-2.7,3.2-3.5,5.2c-0.8,2-1.3,4.1-1.3,6.3v0.1c0,2.3,0.4,4.4,1.2,6.3c0.8,2,2,3.7,3.5,5.1c1.5,1.5,3.2,2.6,5.3,3.5                 c2,0.9,4.3,1.3,6.7,1.3c2.4,0,4.7-0.4,6.7-1.3c2.1-0.9,3.8-2,5.3-3.5c1.5-1.5,2.7-3.2,3.5-5.2c0.8-2,1.3-4.1,1.3-6.3v-0.1                 c0-2.3-0.4-4.4-1.2-6.3C526.1,82.3,524.9,80.5,523.5,79.1z M520.9,90.7c0,1.3-0.2,2.6-0.7,3.8c-0.5,1.2-1.1,2.2-1.9,3.1                 c-0.8,0.9-1.8,1.6-3,2.1c-1.2,0.5-2.5,0.8-3.8,0.8c-1.4,0-2.7-0.3-3.9-0.8c-1.2-0.5-2.2-1.2-3-2.1c-0.9-0.9-1.5-2-2-3.2                 c-0.5-1.2-0.7-2.5-0.7-3.8v-0.1c0-1.4,0.2-2.6,0.7-3.8c0.5-1.2,1.1-2.2,1.9-3.1c0.8-0.9,1.8-1.6,3-2.1c1.2-0.5,2.4-0.8,3.9-0.8                 c1.4,0,2.7,0.3,3.8,0.8c1.2,0.5,2.2,1.2,3,2.1c0.9,0.9,1.5,2,2,3.2C520.7,88,520.9,89.3,520.9,90.7L520.9,90.7z"
       id="path32"
       style="fill:#000000" />
  </g>
  <g
     id="g38"
     style="fill:#000000">
    <path
       class="st0"
       d="M439.5,74.9c-1.1,0.1-3.5,0.6-3.6,3.7v27.9h3.6c1.2-0.1,3.3-0.8,3.4-3.8V74.9H440H439.5z"
       id="path36"
       style="fill:#000000" />
  </g>
  <g
     id="g42"
     style="fill:#000000">
    <path
       class="st0"
       d="M377.1,90.9c-0.9-0.7-1.9-1.4-3.2-1.9c-1.3-0.5-2.7-1-4.3-1.4c-1.4-0.4-2.5-0.7-3.4-0.9                 c-0.9-0.3-1.6-0.6-2.1-0.9c-0.5-0.3-0.9-0.6-1.1-1c-0.2-0.4-0.3-0.8-0.3-1.3v-0.1c0-0.8,0.3-1.4,1-2c0.7-0.5,1.7-0.8,3-0.8                 c1.4,0,2.7,0.3,4.1,0.8c0.6,0.3,1.2,0.6,1.9,0.9v0c0,0,2.4,1.3,4-1.1l1.9-2.7c-1.6-1.3-3.4-2.3-5.3-3c-1.9-0.7-4.1-1-6.4-1                 c-1.6,0-3.1,0.2-4.5,0.7c-1.4,0.5-2.5,1.1-3.5,1.9c-1,0.8-1.7,1.8-2.3,3c-0.5,1.2-0.8,2.5-0.8,3.9V84c0,1.6,0.3,2.9,0.7,3.9                 c0.5,1.1,1.2,1.9,2.1,2.6c0.9,0.7,2,1.3,3.3,1.8c1.3,0.5,2.7,0.9,4.3,1.3c1.3,0.3,2.4,0.6,3.2,0.9c0.8,0.3,1.5,0.6,1.9,0.9                 c0.5,0.3,0.8,0.6,1,1c0.2,0.3,0.2,0.7,0.2,1.2v0.1c0,0.9-0.4,1.7-1.2,2.2c-0.8,0.5-1.9,0.8-3.4,0.8c-1.8,0-3.5-0.3-5-1                 c-0.9-0.4-1.7-0.9-2.5-1.4c-0.1-0.1-2.3-1.1-4.2,1.3l-1.9,2.2c1.9,1.7,4,3,6.3,3.8c2.3,0.8,4.7,1.2,7.1,1.2c1.7,0,3.3-0.2,4.7-0.7                 c1.4-0.4,2.6-1.1,3.6-1.9c1-0.8,1.8-1.8,2.4-3.1c0.6-1.2,0.8-2.6,0.8-4.2V97c0-1.4-0.2-2.6-0.7-3.6                 C378.6,92.5,377.9,91.6,377.1,90.9z"
       id="path40"
       style="fill:#000000" />
  </g>
  <g
     id="g104"
     style="fill:#000000">
    <g
       id="g46"
       style="fill:#000000">
      <path
         class="st0"
         d="M368.1,1.8l0.1,0.2C368.2,2,368.2,1.9,368.1,1.8z"
         id="path44"
         style="fill:#000000" />
    </g>
    <g
       id="g50"
       style="fill:#000000">
      <path
         class="st0"
         d="M580.6,2h1C581,2,580.6,2,580.6,2z"
         id="path48"
         style="fill:#000000" />
    </g>
    <g
       id="g54"
       style="fill:#000000">
      <path
         class="st0"
         d="M619.1,2h1C620.1,2,619.7,2,619.1,2z"
         id="path52"
         style="fill:#000000" />
    </g>
    <g
       id="g58"
       style="fill:#000000">
      <path
         class="st0"
         d="M478.7,2h1C479.8,2,479.4,2,478.7,2z"
         id="path56"
         style="fill:#000000" />
    </g>
    <g
       id="g62"
       style="fill:#000000">
      <path
         class="st0"
         d="M316.7,16.1c-0.1-0.1-0.2-0.1-0.3-0.2C316.4,15.9,316.5,16,316.7,16.1z"
         id="path60"
         style="fill:#000000" />
    </g>
    <g
       id="g66"
       style="fill:#000000">
      <path
         class="st0"
         d="M218.8,4.6l-16,29.4L187.1,5.1C185.5,2,182.9,2,182.9,2h-12.2L201,57.5c0.2,0.3,0.5,1.2,1.6,1.2                     c1,0,1.3-0.8,1.7-1.4L234.7,2h-11.9C222.7,2,220.4,2,218.8,4.6z"
         id="path64"
         style="fill:#000000" />
    </g>
    <g
       id="g70"
       style="fill:#000000">
      <path
         class="st0"
         d="M368.7,3.1c-0.2-0.3-0.6-1.3-1.9-1.3c-1.3,0-1.6,1.1-2.1,1.8l-26.3,55.1h11c0.6-0.1,2.7-0.5,4-3.1l2.5-5.3                     h21.7l2.6,5.4c1.3,2.5,3.2,2.9,3.9,3h11.3L368.7,3.1z M360.6,40.5l6.2-12.9l6.2,12.9H360.6z"
         id="path68"
         style="fill:#000000" />
    </g>
    <g
       id="g74"
       style="fill:#000000">
      <path
         class="st0"
         d="M254.3,2c-2,0.1-6.2,1.1-6.5,6.6v50.1h6.4c2.2-0.2,5.9-1.5,6.1-6.8V2h-4.9H254.3z"
         id="path72"
         style="fill:#000000" />
    </g>
    <g
       id="g78"
       style="fill:#000000">
      <path
         class="st0"
         d="M478.7,2c-2,0.1-6.2,1.1-6.5,6.7v50h6.4c2.1-0.2,5.8-1.4,6-6.7V2h-4.9H478.7z"
         id="path76"
         style="fill:#000000" />
    </g>
    <g
       id="g82"
       style="fill:#000000">
      <path
         class="st0"
         d="M552.6,9.6c-2.7-2.6-5.8-4.7-9.5-6.2C539.4,1.8,535.4,1,531,1c-4.4,0-8.4,0.8-12.1,2.3                     c-3.7,1.5-6.9,3.6-9.6,6.3c-2.7,2.7-4.8,5.8-6.3,9.3c-1.5,3.5-2.3,7.3-2.3,11.4v0.2c0,4,0.7,7.9,2.2,11.4c1.5,3.5,3.6,6.6,6.2,9.2                     c2.7,2.6,5.8,4.7,9.5,6.2c3.7,1.5,7.7,2.3,12.1,2.3c4.4,0,8.4-0.8,12.1-2.3c3.7-1.5,6.9-3.6,9.6-6.3c2.7-2.7,4.8-5.8,6.3-9.3                     c1.5-3.5,2.3-7.3,2.3-11.4v-0.2c0-4.1-0.7-7.8-2.2-11.4C557.3,15.3,555.3,12.2,552.6,9.6z M548,30.5c0,2.4-0.4,4.7-1.3,6.8                     c-0.8,2.1-2,4-3.5,5.6c-1.5,1.6-3.3,2.9-5.4,3.8c-2.1,0.9-4.4,1.4-6.9,1.4c-2.5,0-4.8-0.5-6.9-1.4c-2.1-0.9-3.9-2.2-5.4-3.9                     c-1.5-1.6-2.7-3.5-3.6-5.7c-0.8-2.2-1.3-4.5-1.3-6.9v-0.2c0-2.4,0.4-4.7,1.3-6.8c0.8-2.1,2-4,3.5-5.6c1.5-1.6,3.3-2.9,5.4-3.8                     c2.1-0.9,4.4-1.4,6.9-1.4c2.5,0,4.8,0.5,6.9,1.4c2.1,0.9,3.9,2.2,5.5,3.8c1.5,1.6,2.7,3.5,3.6,5.7c0.8,2.2,1.3,4.5,1.3,6.9V30.5z"
         id="path80"
         style="fill:#000000" />
    </g>
    <g
       id="g86"
       style="fill:#000000">
      <path
         class="st0"
         d="M619.1,2c-1.9,0.1-5.8,0.9-6.5,5.8v26.7c0,4.5-1.1,7.9-3.2,10.2c-2.2,2.3-5.2,3.4-9,3.4c-3.8,0-6.8-1.2-9-3.5                     c-2.2-2.4-3.2-5.8-3.2-10.5V8.7c-0.3-5.7-4.5-6.6-6.5-6.7h-1h-4.9v32.4c0,8.4,2.2,14.7,6.6,18.9c4.4,4.2,10.4,6.3,18,6.3                     c3.8,0,7.2-0.5,10.3-1.6c3.1-1.1,5.7-2.6,7.9-4.8c2.2-2.1,3.8-4.8,5-8c1.2-3.2,1.7-6.9,1.7-11.3V2h-5H619.1z"
         id="path84"
         style="fill:#000000" />
    </g>
    <g
       id="g90"
       style="fill:#000000">
      <path
         class="st0"
         d="M678.5,30.7c-1.6-1.3-3.4-2.5-5.7-3.4c-2.3-0.9-4.8-1.8-7.7-2.6c-2.4-0.7-4.5-1.2-6.1-1.7                     c-1.6-0.5-2.9-1-3.8-1.5c-0.9-0.5-1.6-1.2-1.9-1.8c-0.4-0.7-0.5-1.5-0.5-2.4v-0.2c0-1.4,0.6-2.6,1.8-3.5c1.2-0.9,3-1.4,5.5-1.4                     c2.4,0,4.9,0.5,7.3,1.5c1.1,0.5,2.2,1,3.3,1.6l0,0c0,0,4.3,2.3,7.2-2l3.4-4.9c-2.9-2.3-6.1-4.1-9.6-5.3c-3.5-1.2-7.3-1.9-11.5-1.9                     c-2.9,0-5.6,0.4-8,1.2c-2.4,0.8-4.5,2-6.3,3.5c-1.7,1.5-3.1,3.3-4.1,5.4c-1,2.1-1.4,4.4-1.4,7v0.2c0,2.8,0.5,5.2,1.3,7.1                     c0.9,1.9,2.2,3.5,3.8,4.7c1.6,1.3,3.6,2.3,5.9,3.2c2.3,0.9,4.9,1.7,7.8,2.4c2.4,0.6,4.3,1.2,5.8,1.7c1.5,0.5,2.7,1.1,3.5,1.6                     c0.8,0.5,1.4,1.1,1.7,1.7c0.3,0.6,0.4,1.3,0.4,2.1v0.2c0,1.7-0.7,3-2.2,3.9c-1.4,0.9-3.4,1.4-6,1.4c-3.2,0-6.2-0.6-9-1.9                     c-1.5-0.7-3-1.5-4.5-2.5c-0.2-0.1-4.1-2-7.5,2.3l-3.4,4c3.4,3.1,7.2,5.4,11.3,6.9c4.2,1.5,8.4,2.2,12.7,2.2c3.1,0,5.9-0.4,8.4-1.2                     c2.5-0.8,4.7-1.9,6.5-3.4c1.8-1.5,3.2-3.3,4.3-5.5c1-2.2,1.5-4.7,1.5-7.5v-0.2c0-2.5-0.4-4.6-1.2-6.4                     C681.2,33.6,680.1,32.1,678.5,30.7z"
         id="path88"
         style="fill:#000000" />
    </g>
    <g
       id="g94"
       style="fill:#000000">
      <path
         class="st0"
         d="M316.3,15.8C316.4,15.8,316.4,15.9,316.3,15.8C316.4,15.8,316.3,15.8,316.3,15.8L316.3,15.8z"
         id="path92"
         style="fill:#000000" />
    </g>
    <g
       id="g98"
       style="fill:#000000">
      <path
         class="st0"
         d="M443.8,38.5c3.6-1.3,6.5-3.5,8.8-6.4c2.2-2.9,3.4-6.6,3.4-11.2v-0.2c0-5.4-1.6-9.7-4.9-13                     c-3.8-3.8-9.4-5.8-16.5-5.8h-21c0,0-5-0.3-5,5v51.7h6.4c2.1-0.2,5.7-1.4,6-6.4V40.6h9.7h0.2l10.5,15.7c0.5,0.7,2.1,2.4,5.1,2.4                     h11.1L443.8,38.5z M443.3,21.5c0,2.4-0.8,4.4-2.5,5.8c-1.7,1.5-4,2.2-7.1,2.2h-12.7V13.3h12.4c3.1,0,5.5,0.7,7.2,2                     c1.7,1.4,2.6,3.4,2.6,6.1V21.5z"
         id="path96"
         style="fill:#000000" />
    </g>
    <g
       id="g102"
       style="fill:#000000">
      <path
         class="st0"
         d="M324.2,46.3c-3.5-3.5-6.5-2.2-7.5-1.6c-0.1,0.1-0.2,0.1-0.3,0.2c0,0,0,0,0,0l0,0c-0.9,0.6-1.8,1.1-2.7,1.6                     c-2.3,1.1-4.9,1.7-7.7,1.7c-2.4,0-4.6-0.5-6.6-1.4c-2-0.9-3.8-2.2-5.2-3.8c-1.5-1.6-2.6-3.5-3.4-5.6c-0.8-2.1-1.2-4.4-1.2-6.8                     v-0.1v-0.1v-0.1c0-2.4,0.4-4.7,1.2-6.8c0.8-2.1,1.9-4,3.4-5.6c1.5-1.6,3.2-2.9,5.2-3.8c2-0.9,4.2-1.4,6.6-1.4                     c2.9,0,5.4,0.6,7.7,1.7c0.9,0.5,1.8,1,2.7,1.6v0c0,0,0,0,0,0c0.1,0.1,0.2,0.1,0.3,0.2c1,0.6,4.1,1.8,7.5-1.6c0,0,0.1-0.1,0.1-0.1                     l4-4.6c-1.3-1.3-2.7-2.5-4.2-3.6c-1.5-1.1-3.2-2-4.9-2.8c-1.8-0.8-3.8-1.3-6-1.8c-2.2-0.4-4.6-0.6-7.3-0.6c-4.4,0-8.4,0.8-12,2.3                     c-3.6,1.5-6.7,3.6-9.3,6.3c-2.6,2.7-4.6,5.8-6.1,9.3c-1.4,3.5-2.2,7.2-2.2,11.2h0v0.2c0,0,0,0,0,0c0,0,0,0,0,0v0.2h0                     c0,4,0.8,7.7,2.2,11.2c1.5,3.5,3.5,6.7,6.1,9.3c2.6,2.7,5.7,4.8,9.3,6.3c3.6,1.5,7.6,2.3,12,2.3c2.6,0,5.1-0.2,7.3-0.6                     c2.2-0.4,4.2-1,6-1.8c1.8-0.8,3.4-1.7,4.9-2.8c1.5-1.1,2.9-2.3,4.2-3.6l-4-4.6C324.3,46.3,324.3,46.3,324.2,46.3z"
         id="path100"
         style="fill:#000000" />
    </g>
  </g>
  <g
     id="g108"
     style="fill:#000000">
    <path
       class="st0"
       d="M71.4,105.4c0.5,0.6,1,1.6,2.3,1.6l0,0c1,0,1.6-0.9,2.2-1.6L147.9,1.9h-17.8c-1.5,0-3.2,0-5,2.6L73.7,78.4                 L23.2,5.2c0,0,0,0,0,0c-2-3.3-3.8-3.3-5.5-3.3H0L71.4,105.4L71.4,105.4z"
       id="path106"
       style="fill:#000000" />
  </g>
  <g
     id="g116"
     style="fill:#000000">
    <g
       id="g114"
       style="fill:#000000">
      <g
         id="g112"
         style="fill:#000000">
        <path
           class="st1"
           d="M118.2,1.9h-17.3c-1.5,0-3.2,0-5,2.6L73.9,35.5L53,5.2l0,0c-2-3.3-3.9-3.3-5.5-3.3H29.8l44.2,63.7L118.2,1.9                         z"
           id="path110"
           style="fill:#000000" />
      </g>
    </g>
  </g>
  <g
     id="g122"
     style="fill:#000000">
    <path
       class="st0"
       d="M692.1,8.7V1.1h-2.8v-1h6.8v1h-2.8v7.6H692.1z"
       id="path118"
       style="fill:#000000" />
    <path
       class="st0"
       d="M697.2,8.7V0.1h1.7l2,6.1c0.2,0.6,0.3,1,0.4,1.3c0.1-0.3,0.3-0.8,0.5-1.4l2.1-6h1.5v8.6h-1.1V1.5l-2.5,7.2h-1                 l-2.5-7.3v7.3H697.2z"
       id="path120"
       style="fill:#000000" />
  </g>
</svg>
